<?xml version="1.0" encoding="UTF-8"?>
<svg xmlns="http://www.w3.org/2000/svg" xmlns:xlink="http://www.w3.org/1999/xlink" width="480pt" height="480pt" viewBox="0 0 480 480" version="1.1">
<g id="surface1">
<path style=" stroke:none;fill-rule:nonzero;fill:#0EA3AC;fill-opacity:1;" d="M 236.84375 31.578125 C 157.894531 31.578125 63.15625 94.738281 63.15625 205.261719 L 63.15625 284.210938 C 63.15625 308.140625 73.644531 325.226563 84.375 334.539063 C 90.851563 340.277344 93.625 340.398438 97.945313 342.125 C 103.742188 356.929688 140.378906 442.105469 236.84375 442.105469 C 237.398438 442.105469 237.890625 442.042969 238.382813 442.042969 C 238.445313 442.042969 238.507813 442.042969 238.570313 442.042969 C 274.710938 441.613281 303.515625 428.351563 325.65625 410.527344 L 236.84375 410.527344 C 152.652344 410.527344 125.515625 326.582031 125.515625 326.582031 L 122.738281 318.316406 L 114.351563 316.28125 C 114.351563 316.28125 110.21875 315.296875 105.097656 310.855469 C 100.042969 306.351563 94.738281 299.753906 94.738281 284.210938 L 94.738281 268.421875 L 110.527344 268.421875 C 110.527344 157.894531 268.421875 236.84375 315.789063 126.316406 C 315.789063 126.316406 363.15625 169.921875 363.15625 268.421875 L 363.15625 315.789063 L 376.046875 315.789063 C 369.632813 334.230469 352.363281 347.367188 331.578125 347.367188 L 266.941406 347.367188 C 263.734375 338.179688 255.035156 331.578125 244.738281 331.578125 L 228.949219 331.578125 C 215.871094 331.578125 205.261719 342.1875 205.261719 355.261719 C 205.261719 368.339844 215.871094 378.949219 228.949219 378.949219 L 244.738281 378.949219 C 246.15625 378.949219 247.511719 378.761719 248.871094 378.515625 C 250.101563 378.824219 251.335938 378.949219 252.632813 378.949219 L 331.578125 378.949219 C 370.929688 378.949219 403.679688 349.710938 409.539063 311.964844 C 419.46875 306.660156 426.316406 296.300781 426.316406 284.210938 L 426.316406 268.421875 C 426.316406 256.765625 419.902344 246.710938 410.527344 241.222656 L 410.527344 205.261719 C 410.527344 142.105469 378.949219 63.15625 315.789063 63.15625 C 315.789063 63.15625 300 31.578125 236.84375 31.578125 Z "/>
</g>
</svg>
