<?xml version="1.0" encoding="UTF-8"?>
<svg xmlns="http://www.w3.org/2000/svg" xmlns:xlink="http://www.w3.org/1999/xlink" width="512pt" height="512pt" viewBox="0 0 512 512" version="1.1">
<g id="surface1">
<path style=" stroke:none;fill-rule:nonzero;fill:#0EA3AC;fill-opacity:1;" d="M 256 24 C 128 24 24 128 24 256 C 24 384 128 488 256 488 C 384 488 488 384 488 256 C 488 128 384 24 256 24 Z M 256 48 C 370.796875 48 464 141.203125 464 256 C 464 370.796875 370.796875 464 256 464 C 141.203125 464 48 370.796875 48 256 C 48 141.203125 141.203125 48 256 48 Z M 256 104 C 249.203125 104 244 109.203125 244 116 L 244 196 C 244 202.796875 249.203125 208 256 208 C 262.796875 208 268 202.796875 268 196 L 268 116 C 268 109.203125 262.796875 104 256 104 Z M 196.8125 140.109375 C 194.484375 139.9375 192.09375 140.40625 190 141.609375 C 149.203125 165.203125 124 208.796875 124 256 C 124 328.796875 183.203125 388 256 388 C 328.796875 388 388 328.796875 388 256 C 388 208.796875 362.796875 165.203125 322 141.609375 C 316.40625 138.40625 308.796875 140.40625 305.609375 146 C 302.40625 151.59375 304.40625 159.203125 310 162.390625 C 343.203125 181.59375 364 217.59375 364 256 C 364 315.59375 315.59375 364 256 364 C 196.40625 364 148 315.59375 148 256 C 148 217.59375 168.796875 181.59375 202 162.390625 C 207.59375 159.203125 209.59375 151.59375 206.390625 146 C 204.390625 142.5 200.6875 140.40625 196.8125 140.109375 Z "/>
</g>
</svg>
