<?xml version="1.0" encoding="UTF-8"?>
<svg xmlns="http://www.w3.org/2000/svg" xmlns:xlink="http://www.w3.org/1999/xlink" width="480pt" height="480pt" viewBox="0 0 480 480" version="1.1">
<g id="surface1">
<path style=" stroke:none;fill-rule:nonzero;fill:#0EA3AC;fill-opacity:1;" d="M 102 42 C 98.695313 42 96 44.695313 96 48 C 96 51.304688 98.695313 54 102 54 C 105.304688 54 108 51.304688 108 48 C 108 44.695313 105.304688 42 102 42 Z M 126 42 C 122.695313 42 120 44.695313 120 48 C 120 51.304688 122.695313 54 126 54 C 129.304688 54 132 51.304688 132 48 C 132 44.695313 129.304688 42 126 42 Z M 150 42 C 146.695313 42 144 44.695313 144 48 C 144 51.304688 146.695313 54 150 54 C 153.304688 54 156 51.304688 156 48 C 156 44.695313 153.304688 42 150 42 Z M 174 42 C 170.695313 42 168 44.695313 168 48 C 168 51.304688 170.695313 54 174 54 C 177.304688 54 180 51.304688 180 48 C 180 44.695313 177.304688 42 174 42 Z M 198 42 C 194.695313 42 192 44.695313 192 48 C 192 48.867188 192.1875 49.710938 192.5625 50.484375 C 178.148438 55.78125 164.929688 63.445313 153.210938 72.9375 C 152.25 72.328125 151.148438 72 150 72 C 146.695313 72 144 74.695313 144 78 C 144 78.890625 144.210938 79.757813 144.585938 80.554688 C 137.132813 87.726563 130.382813 95.601563 124.6875 104.25 C 123.539063 102.84375 121.828125 102 120 102 C 116.695313 102 114 104.695313 114 108 C 114 110.90625 116.085938 113.390625 118.945313 113.90625 C 115.6875 119.859375 112.945313 126.140625 110.554688 132.585938 C 109.757813 132.210938 108.890625 132 108 132 C 104.695313 132 102 134.695313 102 138 C 102 140.929688 104.085938 143.414063 106.96875 143.90625 C 105.351563 149.859375 103.992188 155.882813 103.195313 162.117188 C 102.796875 162.046875 102.398438 162 102 162 C 98.695313 162 96 164.695313 96 168 C 96 171.304688 98.695313 174 102 174 C 102.046875 174 102.09375 174 102.164063 174 C 102.070313 175.992188 102 177.984375 102 180 C 102 183.820313 102.421875 187.898438 103.007813 192.09375 C 102.679688 192.023438 102.328125 192 102 192 C 98.695313 192 96 194.695313 96 198 C 96 201.304688 98.695313 204 102 204 C 103.078125 204 104.15625 203.695313 105.09375 203.132813 C 106.570313 209.4375 108.539063 216 110.953125 222.84375 C 109.125 223.921875 108 225.890625 108 228 C 108 231.304688 110.695313 234 114 234 C 114.375 234 114.773438 233.976563 115.125 233.90625 C 117.5625 240 120.234375 246.234375 123.164063 252.632813 C 123.1875 252.65625 123.1875 252.679688 123.1875 252.703125 C 121.242188 253.734375 120 255.773438 120 258 C 120 261.304688 122.695313 264 126 264 C 126.84375 264 127.664063 263.8125 128.4375 263.484375 C 131.414063 269.625 134.507813 275.789063 137.789063 282 C 134.554688 282.117188 132 284.765625 132 288 C 132 291.304688 134.695313 294 138 294 C 139.921875 294 141.703125 293.085938 142.851563 291.539063 C 151.125 306.726563 159.984375 321.9375 168.867188 336.46875 C 202.03125 390.609375 235.171875 435.5625 235.171875 435.5625 L 240 442.125 L 244.828125 435.5625 C 244.828125 435.5625 277.96875 390.609375 311.132813 336.46875 C 327.703125 309.398438 344.296875 280.007813 356.835938 252.632813 C 369.375 225.234375 378 200.039063 378 180 C 378 103.851563 316.148438 42 240 42 C 227.507813 42 215.414063 43.734375 203.90625 46.875 C 203.34375 44.039063 200.882813 42 198 42 Z M 240 54 C 309.65625 54 366 110.34375 366 180 C 366 196.40625 358.125 220.945313 345.914063 247.617188 C 333.703125 274.3125 317.296875 303.375 300.867188 330.1875 C 271.898438 377.53125 246.421875 412.804688 240 421.617188 C 233.578125 412.804688 208.101563 377.53125 179.132813 330.1875 C 162.703125 303.375 146.296875 274.3125 134.085938 247.617188 C 121.875 220.945313 114 196.40625 114 180 C 114 110.34375 170.34375 54 240 54 Z M 240 66 C 236.695313 66 234 68.695313 234 72 C 234 75.304688 236.695313 78 240 78 C 243.304688 78 246 75.304688 246 72 C 246 68.695313 243.304688 66 240 66 Z M 212.085938 69.679688 C 211.945313 69.679688 211.804688 69.679688 211.6875 69.679688 C 211.265625 69.726563 210.890625 69.773438 210.492188 69.890625 C 207.28125 70.757813 205.382813 74.039063 206.25 77.25 C 207.117188 80.4375 210.398438 82.335938 213.585938 81.46875 C 216.796875 80.625 218.695313 77.34375 217.851563 74.132813 C 217.148438 71.53125 214.804688 69.703125 212.085938 69.679688 Z M 267.914063 69.679688 C 265.21875 69.703125 262.851563 71.53125 262.148438 74.132813 C 261.304688 77.34375 263.203125 80.625 266.414063 81.46875 C 269.601563 82.335938 272.882813 80.4375 273.75 77.25 C 274.617188 74.039063 272.71875 70.757813 269.507813 69.890625 C 268.992188 69.75 268.453125 69.679688 267.914063 69.679688 Z M 102 72 C 98.695313 72 96 74.695313 96 78 C 96 81.304688 98.695313 84 102 84 C 105.304688 84 108 81.304688 108 78 C 108 74.695313 105.304688 72 102 72 Z M 126 72 C 122.695313 72 120 74.695313 120 78 C 120 81.304688 122.695313 84 126 84 C 129.304688 84 132 81.304688 132 78 C 132 74.695313 129.304688 72 126 72 Z M 185.859375 80.460938 C 184.851563 80.484375 183.867188 80.765625 183 81.28125 C 181.617188 82.054688 180.609375 83.367188 180.1875 84.914063 C 179.789063 86.460938 180 88.101563 180.796875 89.460938 C 181.59375 90.84375 182.90625 91.851563 184.453125 92.273438 C 185.976563 92.671875 187.617188 92.460938 189 91.664063 C 191.859375 90 192.84375 86.34375 191.179688 83.460938 C 190.101563 81.5625 188.0625 80.414063 185.859375 80.460938 Z M 293.71875 80.484375 C 291.679688 80.578125 289.828125 81.703125 288.796875 83.460938 C 288 84.84375 287.789063 86.484375 288.1875 88.03125 C 288.609375 89.578125 289.617188 90.890625 291 91.6875 C 293.859375 93.328125 297.539063 92.34375 299.179688 89.460938 C 300.84375 86.601563 299.859375 82.945313 297 81.28125 C 295.992188 80.695313 294.867188 80.4375 293.71875 80.484375 Z M 163.710938 97.617188 C 162.09375 97.59375 160.523438 98.226563 159.375 99.375 C 157.054688 101.71875 157.054688 105.539063 159.375 107.882813 C 161.71875 110.203125 165.539063 110.203125 167.882813 107.882813 C 170.203125 105.539063 170.203125 101.71875 167.882813 99.375 C 166.757813 98.273438 165.28125 97.664063 163.710938 97.617188 Z M 316.453125 97.617188 C 314.835938 97.59375 313.265625 98.226563 312.117188 99.375 C 309.773438 101.71875 309.773438 105.539063 312.117188 107.882813 C 314.460938 110.203125 318.257813 110.203125 320.601563 107.882813 C 322.945313 105.539063 322.945313 101.71875 320.601563 99.375 C 319.5 98.273438 318.023438 97.664063 316.453125 97.617188 Z M 72 102 C 68.695313 102 66 104.695313 66 108 C 66 111.304688 68.695313 114 72 114 C 75.304688 114 78 111.304688 78 108 C 78 104.695313 75.304688 102 72 102 Z M 96 102 C 92.695313 102 90 104.695313 90 108 C 90 111.304688 92.695313 114 96 114 C 99.304688 114 102 111.304688 102 108 C 102 104.695313 99.304688 102 96 102 Z M 333.375 120 C 332.367188 120.023438 331.382813 120.304688 330.515625 120.796875 C 329.132813 121.59375 328.125 122.90625 327.726563 124.453125 C 327.304688 125.976563 327.515625 127.617188 328.3125 129 C 329.976563 131.859375 333.65625 132.84375 336.515625 131.179688 C 339.375 129.539063 340.382813 125.859375 338.71875 123 C 337.617188 121.101563 335.578125 119.953125 333.375 120 Z M 146.179688 120 C 144.164063 120.117188 142.3125 121.242188 141.28125 123 C 139.617188 125.859375 140.601563 129.539063 143.460938 131.179688 C 146.34375 132.84375 150 131.859375 151.664063 129 C 153.328125 126.140625 152.34375 122.460938 149.460938 120.820313 C 148.476563 120.234375 147.328125 119.953125 146.179688 120 Z M 84 132 C 80.695313 132 78 134.695313 78 138 C 78 141.304688 80.695313 144 84 144 C 87.304688 144 90 141.304688 90 138 C 90 134.695313 87.304688 132 84 132 Z M 135.632813 146.0625 C 132.914063 146.085938 130.570313 147.890625 129.867188 150.492188 C 129.023438 153.703125 130.921875 156.984375 134.132813 157.851563 C 137.320313 158.71875 140.601563 156.820313 141.46875 153.609375 C 142.335938 150.398438 140.4375 147.117188 137.226563 146.25 C 136.710938 146.109375 136.171875 146.039063 135.632813 146.0625 Z M 344.53125 146.0625 C 343.945313 146.039063 343.335938 146.085938 342.75 146.25 C 341.226563 146.671875 339.914063 147.679688 339.117188 149.039063 C 338.320313 150.421875 338.109375 152.0625 338.53125 153.609375 C 339.375 156.820313 342.65625 158.71875 345.867188 157.851563 C 349.078125 156.984375 350.976563 153.703125 350.109375 150.492188 C 349.429688 147.960938 347.179688 146.15625 344.53125 146.0625 Z M 174 150 L 174 162 L 240 162 L 240 222 L 226.875 222 C 224.367188 215.0625 217.757813 210 210 210 C 202.242188 210 195.632813 215.0625 193.125 222 L 192 222 L 192 198 L 180 198 L 180 234 L 193.125 234 C 195.632813 240.9375 202.242188 246 210 246 C 217.757813 246 224.367188 240.9375 226.875 234 L 259.125 234 C 261.632813 240.9375 268.242188 246 276 246 C 283.757813 246 290.367188 240.9375 292.875 234 L 306 234 L 306 190.195313 L 291.210938 168 L 252 168 L 252 150 Z M 54 162 C 50.695313 162 48 164.695313 48 168 C 48 171.304688 50.695313 174 54 174 C 57.304688 174 60 171.304688 60 168 C 60 164.695313 57.304688 162 54 162 Z M 78 162 C 74.695313 162 72 164.695313 72 168 C 72 171.304688 74.695313 174 78 174 C 81.304688 174 84 171.304688 84 168 C 84 164.695313 81.304688 162 78 162 Z M 132 174 C 128.695313 174 126 176.695313 126 180 C 126 183.304688 128.695313 186 132 186 C 135.304688 186 138 183.304688 138 180 C 138 176.695313 135.304688 174 132 174 Z M 180 174 L 180 186 L 210 186 L 210 174 Z M 348 174 C 344.695313 174 342 176.695313 342 180 C 342 183.304688 344.695313 186 348 186 C 351.304688 186 354 183.304688 354 180 C 354 176.695313 351.304688 174 348 174 Z M 252 180 L 284.789063 180 L 294 193.804688 L 294 222 L 292.875 222 C 290.367188 215.0625 283.757813 210 276 210 C 268.242188 210 261.632813 215.0625 259.125 222 L 252 222 Z M 78 192 C 74.695313 192 72 194.695313 72 198 C 72 201.304688 74.695313 204 78 204 C 81.304688 204 84 201.304688 84 198 C 84 194.695313 81.304688 192 78 192 Z M 135.914063 201.960938 C 135.304688 201.9375 134.695313 202.007813 134.132813 202.148438 C 130.921875 203.015625 129.023438 206.296875 129.867188 209.507813 C 130.734375 212.71875 134.015625 214.617188 137.226563 213.75 C 140.4375 212.882813 142.335938 209.601563 141.46875 206.414063 C 140.789063 203.859375 138.539063 202.054688 135.914063 201.960938 Z M 344.25 201.960938 C 341.554688 201.984375 339.210938 203.8125 338.53125 206.414063 C 338.109375 207.960938 338.320313 209.601563 339.117188 210.960938 C 339.914063 212.34375 341.226563 213.351563 342.773438 213.75 C 345.984375 214.617188 349.265625 212.71875 350.132813 209.53125 C 350.976563 206.320313 349.078125 203.039063 345.867188 202.171875 C 345.351563 202.03125 344.8125 201.960938 344.25 201.960938 Z M 66 222 C 62.695313 222 60 224.695313 60 228 C 60 231.304688 62.695313 234 66 234 C 69.304688 234 72 231.304688 72 228 C 72 224.695313 69.304688 222 66 222 Z M 90 222 C 86.695313 222 84 224.695313 84 228 C 84 231.304688 86.695313 234 90 234 C 93.304688 234 96 231.304688 96 228 C 96 224.695313 93.304688 222 90 222 Z M 210 222 C 213.375 222 216 224.625 216 228 C 216 231.375 213.375 234 210 234 C 206.625 234 204 231.375 204 228 C 204 224.625 206.625 222 210 222 Z M 276 222 C 279.375 222 282 224.625 282 228 C 282 231.375 279.375 234 276 234 C 272.625 234 270 231.375 270 228 C 270 224.625 272.625 222 276 222 Z M 102 252 C 98.695313 252 96 254.695313 96 258 C 96 261.304688 98.695313 264 102 264 C 105.304688 264 108 261.304688 108 258 C 108 254.695313 105.304688 252 102 252 Z M 90 282 C 86.695313 282 84 284.695313 84 288 C 84 291.304688 86.695313 294 90 294 C 93.304688 294 96 291.304688 96 288 C 96 284.695313 93.304688 282 90 282 Z M 114 282 C 110.695313 282 108 284.695313 108 288 C 108 291.304688 110.695313 294 114 294 C 117.304688 294 120 291.304688 120 288 C 120 284.695313 117.304688 282 114 282 Z "/>
</g>
</svg>
