<?xml version="1.0" encoding="UTF-8"?>
<svg xmlns="http://www.w3.org/2000/svg" xmlns:xlink="http://www.w3.org/1999/xlink" width="512pt" height="512pt" viewBox="0 0 512 512" version="1.1">
<defs>
<linearGradient id="linear0" gradientUnits="userSpaceOnUse" x1="32" y1="11.8333" x2="32" y2="29.1795" spreadMethod="reflect" gradientTransform="matrix(8,0,0,8,0,0)">
<stop offset="0" style="stop-color:#6DC7FF;stop-opacity:1;"/>
<stop offset="1" style="stop-color:#E6ABFF;stop-opacity:1;"/>
</linearGradient>
<linearGradient id="linear1" gradientUnits="userSpaceOnUse" x1="52" y1="11.8333" x2="52" y2="29.1795" spreadMethod="reflect" gradientTransform="matrix(8,0,0,8,0,0)">
<stop offset="0" style="stop-color:#6DC7FF;stop-opacity:1;"/>
<stop offset="1" style="stop-color:#E6ABFF;stop-opacity:1;"/>
</linearGradient>
<linearGradient id="linear2" gradientUnits="userSpaceOnUse" x1="12" y1="11.8333" x2="12" y2="29.1795" spreadMethod="reflect" gradientTransform="matrix(8,0,0,8,0,0)">
<stop offset="0" style="stop-color:#6DC7FF;stop-opacity:1;"/>
<stop offset="1" style="stop-color:#E6ABFF;stop-opacity:1;"/>
</linearGradient>
<linearGradient id="linear3" gradientUnits="userSpaceOnUse" x1="25" y1="10" x2="25" y2="54.5611" spreadMethod="reflect" gradientTransform="matrix(8,0,0,8,0,0)">
<stop offset="0" style="stop-color:#1A6DFF;stop-opacity:1;"/>
<stop offset="1" style="stop-color:#C822FF;stop-opacity:1;"/>
</linearGradient>
<linearGradient id="linear4" gradientUnits="userSpaceOnUse" x1="41" y1="10" x2="41" y2="54.5611" spreadMethod="reflect" gradientTransform="matrix(8,0,0,8,0,0)">
<stop offset="0" style="stop-color:#1A6DFF;stop-opacity:1;"/>
<stop offset="1" style="stop-color:#C822FF;stop-opacity:1;"/>
</linearGradient>
<linearGradient id="linear5" gradientUnits="userSpaceOnUse" x1="32" y1="10" x2="32" y2="54.5611" spreadMethod="reflect" gradientTransform="matrix(8,0,0,8,0,0)">
<stop offset="0" style="stop-color:#1A6DFF;stop-opacity:1;"/>
<stop offset="1" style="stop-color:#C822FF;stop-opacity:1;"/>
</linearGradient>
</defs>
<g id="surface1">
<path style=" stroke:none;fill-rule:nonzero;fill:url(#linear0);" d="M 296 88 L 296 192 C 296 214.089844 278.089844 232 256 232 C 233.910156 232 216 214.089844 216 192 L 216 88 Z "/>
<path style=" stroke:none;fill-rule:nonzero;fill:url(#linear1);" d="M 376 192 C 376 216.726563 398.441406 236.214844 424.0625 231.207031 C 443.054688 227.503906 456 209.632813 456 190.28125 L 456 189.863281 C 456 180.726563 454.039063 171.6875 450.265625 163.367188 L 424.527344 106.753906 C 419.335938 95.335938 407.945313 88 395.398438 88 L 376 88 Z "/>
<path style=" stroke:none;fill-rule:nonzero;fill:url(#linear2);" d="M 136 88 L 116.601563 88 C 104.054688 88 92.664063 95.335938 87.472656 106.753906 L 61.734375 163.367188 C 57.960938 171.695313 56 180.726563 56 189.871094 L 56 190.289063 C 56 211.175781 71.273438 229.832031 92.070313 231.816406 C 115.929688 234.089844 136 215.382813 136 192 Z "/>
<path style=" stroke:none;fill-rule:nonzero;fill:url(#linear3);" d="M 192 352 L 208 352 L 208 384 L 192 384 Z "/>
<path style=" stroke:none;fill-rule:nonzero;fill:url(#linear4);" d="M 272 368 L 384 368 C 392.824219 368 400 360.824219 400 352 L 400 288 C 400 279.175781 392.824219 272 384 272 L 272 272 C 263.175781 272 256 279.175781 256 288 L 256 352 C 256 360.824219 263.175781 368 272 368 Z M 272 288 L 384 288 L 384 352 L 272 352 Z "/>
<path style=" stroke:none;fill-rule:nonzero;fill:url(#linear5);" d="M 432 408 L 432 237.175781 C 450.855469 230.472656 464 211.777344 464 189.863281 C 464 179.496094 461.832031 169.472656 457.535156 160.054688 L 431.800781 103.449219 C 425.335938 89.199219 411.046875 80 395.398438 80 L 116.601563 80 C 100.953125 80 86.664063 89.199219 80.191406 103.449219 L 54.457031 160.0625 C 50.167969 169.480469 48 179.503906 48 190.28125 C 48 211.601563 61.375 230.273438 80 237.136719 L 80 408 C 80 410.816406 80.574219 413.488281 81.472656 416 L 48 416 L 48 432 L 464 432 L 464 416 L 430.527344 416 C 431.425781 413.488281 432 410.816406 432 408 Z M 224 304 L 160 304 L 160 288 L 224 288 Z M 224 272 L 160 272 C 151.175781 272 144 279.175781 144 288 L 144 384 L 96 384 L 96 239.984375 C 107.894531 239.960938 119.457031 235.542969 128.28125 227.527344 C 131.257813 224.824219 133.800781 221.742188 135.976563 218.449219 C 144.585938 231.414063 159.296875 240 176 240 C 192.6875 240 207.398438 231.433594 216 218.480469 C 224.601563 231.441406 239.3125 240 256 240 C 272.6875 240 287.398438 231.433594 296 218.480469 C 304.601563 231.441406 319.3125 240 336 240 C 352.695313 240 367.40625 231.425781 376.007813 218.457031 C 378.617188 222.382813 381.769531 225.992188 385.503906 229.070313 C 394.144531 236.191406 404.894531 239.96875 416 239.992188 L 416 384 L 240 384 L 240 288 C 240 279.175781 232.824219 272 224 272 Z M 417.238281 110.070313 L 442.976563 166.6875 C 446.3125 174.007813 448 181.808594 448 190.28125 C 448 206.558594 437.289063 220.472656 422.527344 223.359375 C 412.734375 225.289063 403.191406 222.910156 395.679688 216.71875 C 388.257813 210.609375 384 201.601563 384 192 L 384 96 L 395.398438 96 C 404.792969 96 413.359375 101.519531 417.238281 110.070313 Z M 368 96 L 368 192 C 368 209.648438 353.648438 224 336 224 C 318.351563 224 304 209.648438 304 192 L 304 96 Z M 288 192 C 288 209.648438 273.648438 224 256 224 C 238.351563 224 224 209.648438 224 192 L 224 96 L 288 96 Z M 208 96 L 208 192 C 208 209.648438 193.648438 224 176 224 C 158.351563 224 144 209.648438 144 192 L 144 96 Z M 64 189.863281 C 64 181.800781 65.6875 174.007813 69.023438 166.6875 L 94.761719 110.0625 C 98.640625 101.519531 107.207031 96 116.601563 96 L 128 96 L 128 192 C 128 201 124.175781 209.625 117.519531 215.6875 C 110.761719 221.824219 102.007813 224.695313 92.824219 223.855469 C 76.664063 222.304688 64 207.558594 64 189.863281 Z M 104 416 C 99.585938 416 96 412.414063 96 408 L 96 400 L 144 400 L 144 416 Z M 160 416 L 160 320 L 224 320 L 224 416 Z M 240 416 L 240 400 L 416 400 L 416 408 C 416 412.414063 412.414063 416 408 416 Z "/>
</g>
</svg>
