<?xml version="1.0" encoding="UTF-8"?>
<svg xmlns="http://www.w3.org/2000/svg" xmlns:xlink="http://www.w3.org/1999/xlink" width="500pt" height="500pt" viewBox="0 0 500 500" version="1.1">
<g id="surface1">
<path style=" stroke:none;fill-rule:nonzero;fill:#0EA3AC;fill-opacity:1;" d="M 17.980469 19.839844 C 17.671875 19.917969 17.359375 20.035156 17.050781 20.152344 C 7.402344 21.507813 0 29.683594 0 39.683594 C 0 50.648438 8.875 59.523438 19.839844 59.523438 C 30.808594 59.523438 39.683594 50.648438 39.683594 39.683594 L 85.875 39.683594 C 98.238281 39.683594 104.671875 42.238281 109.4375 46.503906 C 114.125 50.726563 117.921875 57.78125 121.21875 68.824219 L 121.21875 69.132813 L 200.582031 389.074219 C 203.566406 400.429688 206.242188 412.09375 214.535156 421.628906 C 217.945313 425.578125 222.324219 428.796875 227.554688 431.238281 C 221.820313 438.136719 218.253906 446.777344 218.253906 456.347656 C 218.253906 478.167969 236.117188 496.03125 257.9375 496.03125 C 279.753906 496.03125 297.617188 478.167969 297.617188 456.347656 C 297.617188 449.0625 295.488281 442.398438 292.039063 436.507813 L 352.800781 436.507813 C 349.355469 442.398438 347.222656 449.0625 347.222656 456.347656 C 347.222656 478.167969 365.085938 496.03125 386.90625 496.03125 C 408.722656 496.03125 426.585938 478.167969 426.585938 456.347656 C 426.585938 446.15625 422.441406 437.050781 416.046875 429.996094 C 417.171875 426.976563 416.707031 423.566406 414.882813 420.929688 C 413.023438 418.253906 410 416.667969 406.746094 416.667969 L 255.144531 416.667969 C 239.878906 416.667969 233.910156 413.410156 229.726563 408.605469 C 225.578125 403.878906 222.75 395.507813 219.804688 384.425781 L 219.804688 384.113281 L 212.984375 357.144531 L 394.964844 357.144531 C 399.074219 357.144531 402.792969 354.507813 404.265625 350.632813 L 475.570313 162.140625 C 476.734375 159.078125 476.191406 155.824219 474.332031 153.148438 C 472.46875 150.476563 469.523438 148.808594 466.269531 148.808594 L 161.519531 148.808594 L 140.4375 64.175781 C 140.4375 63.980469 140.4375 63.746094 140.4375 63.554688 C 136.640625 50.765625 131.757813 39.683594 122.769531 31.621094 C 113.777344 23.5625 101.261719 19.839844 85.875 19.839844 L 19.839844 19.839844 C 19.53125 19.839844 19.222656 19.839844 18.910156 19.839844 C 18.601563 19.839844 18.292969 19.839844 17.980469 19.839844 Z M 307.539063 188.492188 C 313.042969 188.492188 317.460938 192.949219 317.460938 198.414063 L 317.460938 238.09375 L 357.144531 238.09375 C 362.644531 238.09375 367.0625 242.550781 367.0625 248.015625 C 367.0625 253.480469 362.644531 257.9375 357.144531 257.9375 L 317.460938 257.9375 L 317.460938 297.617188 C 317.460938 303.121094 313.042969 307.539063 307.539063 307.539063 C 302.035156 307.539063 297.617188 303.121094 297.617188 297.617188 L 297.617188 257.9375 L 257.9375 257.9375 C 252.472656 257.9375 248.015625 253.480469 248.015625 248.015625 C 248.015625 242.550781 252.472656 238.09375 257.9375 238.09375 L 297.617188 238.09375 L 297.617188 198.414063 C 297.617188 192.949219 302.035156 188.492188 307.539063 188.492188 Z M 257.9375 436.507813 C 269.019531 436.507813 277.777344 445.265625 277.777344 456.347656 C 277.777344 467.433594 269.019531 476.191406 257.9375 476.191406 C 246.851563 476.191406 238.09375 467.433594 238.09375 456.347656 C 238.09375 445.265625 246.851563 436.507813 257.9375 436.507813 Z M 386.90625 436.507813 C 397.988281 436.507813 406.746094 445.265625 406.746094 456.347656 C 406.746094 467.433594 397.988281 476.191406 386.90625 476.191406 C 375.820313 476.191406 367.0625 467.433594 367.0625 456.347656 C 367.0625 445.265625 375.820313 436.507813 386.90625 436.507813 Z "/>
</g>
</svg>
