<?xml version="1.0" encoding="UTF-8"?>
<svg xmlns="http://www.w3.org/2000/svg" xmlns:xlink="http://www.w3.org/1999/xlink" width="512pt" height="512pt" viewBox="0 0 512 512" version="1.1">
<g id="surface1">
<path style=" stroke:none;fill-rule:nonzero;fill:#FFFFFF;fill-opacity:1;" d="M 297.5 26.5 L 282.5 32 L 194 64.5 L 179 70 L 184.5 85 L 211.5 158 L 217 173 L 232 167.5 L 320.5 135 L 335.5 129.5 L 330 114.5 L 303 41.5 Z M 137.5 48 L 122.5 53.5 L 80 69 L 90.5 99 L 118.5 89 L 225 373.5 L 230.5 388.5 L 245.5 383 L 415.5 319 L 404.5 289 L 249.5 347.5 L 143 63 Z M 278.5 67.5 L 294.5 110.5 L 236 132 L 220 89 Z M 348.5 158.5 L 333.5 164 L 245 196.5 L 230 202 L 235.5 217 L 262.5 290 L 268 305 L 283 299.5 L 371.5 267 L 386.5 261.5 L 381 246 L 354 173.5 Z M 329.5 199.5 L 345.5 242.5 L 287 264 L 271 221 Z M 176 336 C 149.6875 336 128 357.6875 128 384 C 128 410.3125 149.6875 432 176 432 C 202.3125 432 224 410.3125 224 384 C 224 357.6875 202.3125 336 176 336 Z M 176 432 L 80 432 L 80 464 L 432 464 L 432 432 Z M 176 368 C 185 368 192 375 192 384 C 192 393 185 400 176 400 C 167 400 160 393 160 384 C 160 375 167 368 176 368 Z "/>
</g>
</svg>
