<?xml version="1.0" encoding="UTF-8"?>
<svg xmlns="http://www.w3.org/2000/svg" xmlns:xlink="http://www.w3.org/1999/xlink" width="480pt" height="480pt" viewBox="0 0 480 480" version="1.1">
<g id="surface1">
<path style=" stroke:none;fill-rule:nonzero;fill:#FFFFFF;fill-opacity:1;" d="M 214.375 140 C 206.5625 140 200 146.5625 200 154.375 L 200 166.875 C 164.765625 168.984375 152.5 173.75 152.5 173.75 C 138.359375 178.4375 119.0625 185.15625 111.25 200 C 107.5 207.1875 93.359375 245.234375 80.625 280 L 63.125 280 C 55.78125 280 48.125 285.78125 45.625 293.125 L 40.625 306.875 C 38.125 314.21875 42.03125 320 49.375 320 L 65.625 320 C 65.15625 321.328125 62.5 329.375 62.5 329.375 C 61.25 331.5625 60 341.71875 60 344.375 L 60 465.625 C 60 473.4375 66.5625 480 74.375 480 L 125.625 480 C 133.4375 480 140 473.4375 140 465.625 L 140 440 L 340 440 L 340 465.625 C 340 473.4375 346.5625 480 354.375 480 L 405.625 480 C 413.4375 480 420 473.4375 420 465.625 L 420 344.375 C 420 341.71875 418.75 331.5625 417.5 329.375 C 417.5 329.375 414.84375 321.328125 414.375 320 L 430.625 320 C 437.96875 320 441.875 314.21875 439.375 306.875 L 434.375 293.125 C 431.875 285.78125 424.21875 280 416.875 280 L 399.375 280 C 386.796875 246.328125 372.65625 209.53125 368.125 199.375 C 361.25 184.0625 339.53125 177.109375 327.5 173.75 C 327.5 173.75 315.234375 168.984375 280 166.875 L 280 154.375 C 280 146.5625 273.4375 140 265.625 140 Z M 240 195.625 C 341.640625 195.625 344.140625 212.890625 344.375 213.125 C 347.5 222.5 360.078125 245.3125 370 285.625 C 370 285.625 326.875 300 240 300 C 153.125 300 110 285.625 110 285.625 C 120.546875 241.875 131.875 222.5 134.375 215.625 C 136.40625 210.625 138.359375 195.625 240 195.625 Z M 90.625 336.875 C 92.65625 336.640625 94.6875 336.875 96.875 336.875 C 105.546875 336.875 123.046875 344.296875 134.375 349.375 C 146.71875 354.921875 160.625 359.53125 160.625 368.75 C 160.625 377.265625 156.171875 381.25 140 381.25 L 118.125 381.25 C 98.984375 381.25 80 378.4375 80 366.25 L 80 351.875 C 80 341.171875 84.53125 337.65625 90.625 336.875 Z M 383.125 336.875 C 392.03125 336.875 400 337.65625 400 351.875 L 400 366.25 C 400 378.4375 381.015625 381.25 361.875 381.25 L 340 381.25 C 323.90625 381.25 319.375 377.265625 319.375 368.75 C 319.375 359.53125 333.28125 354.921875 345.625 349.375 C 356.953125 344.296875 374.453125 336.875 383.125 336.875 Z "/>
</g>
</svg>
