<?xml version="1.0" encoding="UTF-8"?>
<svg xmlns="http://www.w3.org/2000/svg" xmlns:xlink="http://www.w3.org/1999/xlink" width="500pt" height="500pt" viewBox="0 0 500 500" version="1.1">
<g id="surface1">
<path style=" stroke:none;fill-rule:nonzero;fill:#C8EDE6;fill-opacity:1;" d="M 436.878906 287.949219 C 438.375 284.886719 439.691406 281.664063 440.835938 278.296875 C 453.925781 239.664063 434.128906 193.394531 392.449219 182.226563 C 387.945313 125.628906 348.175781 86.808594 303.261719 80.183594 C 251.855469 72.605469 204.753906 105.261719 189.089844 157.164063 C 170.199219 150.476563 151.800781 151.289063 134.453125 161.425781 C 126.585938 165.066406 119.390625 170.433594 112.929688 177.5 C 103.449219 187.871094 97.285156 200.960938 94.773438 214.761719 C 91.054688 215.34375 87.40625 215.929688 83.953125 217.171875 C 63.871094 224.371094 51.199219 239.199219 47.726563 261.523438 C 45.558594 275.429688 49.925781 289.300781 52.359375 294.90625 C 61.980469 317.050781 84.289063 329.605469 106.949219 326.285156 C 108.078125 326.121094 109.714844 326.628906 110.691406 327.441406 C 111.890625 362.835938 129.074219 394.136719 154.855469 412.019531 C 196.226563 440.714844 249.441406 431.875 283.019531 392.523438 C 297.40625 407.238281 314.53125 414.390625 334.644531 411.796875 C 354.644531 409.214844 370.175781 398.179688 381.503906 380.234375 C 386.734375 381.640625 391.703125 383.671875 396.835938 384.230469 C 416.929688 386.425781 431.789063 377.386719 445.214844 360.371094 C 450.449219 353.734375 454.136719 339.359375 454.128906 328.78125 C 454.125 312.589844 447.699219 297.839844 436.878906 287.949219 Z "/>
<path style=" stroke:none;fill-rule:nonzero;fill:#FDFCEF;fill-opacity:1;" d="M 204.851563 361.875 C 214.214844 361.875 222.335938 361.875 222.449219 361.875 C 232.941406 361.875 241.445313 353.550781 241.445313 343.285156 C 241.445313 334.328125 234.96875 326.855469 226.355469 325.089844 C 226.453125 324.304688 226.519531 323.511719 226.519531 322.699219 C 226.519531 312.066406 217.714844 303.445313 206.851563 303.445313 C 200.433594 303.445313 194.753906 306.464844 191.164063 311.113281 C 190.246094 299.28125 179.445313 290.144531 166.804688 291.660156 C 157.566406 292.765625 149.921875 299.761719 148.21875 308.714844 C 147.675781 311.589844 147.730469 314.378906 148.273438 316.996094 C 145.800781 314.386719 142.269531 312.738281 138.339844 312.738281 C 131.148438 312.738281 125.285156 318.21875 124.820313 325.140625 C 121.554688 324.433594 118.003906 324.480469 114.265625 325.855469 C 107.113281 328.480469 102.023438 335.070313 101.726563 342.535156 C 101.300781 353.140625 109.960938 361.871094 120.703125 361.871094 C 121.519531 361.871094 124.386719 361.871094 125.050781 361.871094 L 164.488281 361.871094 M 172.644531 361.875 L 174.433594 361.875 "/>
<path style=" stroke:none;fill-rule:nonzero;fill:#472B29;fill-opacity:1;" d="M 222.449219 364.375 L 204.84375 364.375 C 203.464844 364.375 202.34375 363.253906 202.34375 361.875 C 202.34375 360.496094 203.464844 359.375 204.84375 359.375 L 222.449219 359.375 C 231.539063 359.375 238.941406 352.160156 238.941406 343.285156 C 238.941406 335.714844 233.433594 329.09375 225.851563 327.539063 C 224.570313 327.28125 223.710938 326.078125 223.871094 324.78125 C 223.953125 324.101563 224.015625 323.410156 224.015625 322.699219 C 224.015625 313.460938 216.316406 305.945313 206.84375 305.945313 C 201.421875 305.945313 196.425781 308.386719 193.136719 312.640625 C 192.511719 313.460938 191.445313 313.804688 190.441406 313.503906 C 189.453125 313.210938 188.746094 312.335938 188.671875 311.304688 C 188.273438 306.246094 185.859375 301.648438 181.871094 298.375 C 177.753906 294.996094 172.5 293.480469 167.101563 294.140625 C 158.921875 295.121094 152.171875 301.304688 150.675781 309.179688 C 150.203125 311.628906 150.226563 314.089844 150.71875 316.484375 C 150.949219 317.578125 150.421875 318.691406 149.429688 319.203125 C 148.445313 319.71875 147.234375 319.519531 146.460938 318.710938 C 144.328125 316.46875 141.449219 315.234375 138.339844 315.234375 C 132.535156 315.234375 127.683594 319.65625 127.308594 325.300781 C 127.261719 326.023438 126.898438 326.695313 126.320313 327.128906 C 125.738281 327.570313 125 327.730469 124.289063 327.574219 C 121.125 326.890625 118.136719 327.089844 115.125 328.191406 C 108.859375 330.496094 104.476563 336.296875 104.226563 342.625 C 104.050781 346.96875 105.625 351.105469 108.664063 354.269531 C 111.820313 357.550781 116.09375 359.359375 120.703125 359.359375 L 164.488281 359.359375 C 165.871094 359.359375 166.988281 360.480469 166.988281 361.859375 C 166.988281 363.238281 165.871094 364.359375 164.488281 364.359375 L 120.699219 364.359375 C 114.800781 364.359375 109.105469 361.945313 105.054688 357.734375 C 101.066406 353.578125 98.996094 348.144531 99.21875 342.425781 C 99.550781 334.09375 105.25 326.488281 113.394531 323.496094 C 116.429688 322.378906 119.566406 321.980469 122.734375 322.28125 C 124.453125 315.339844 130.84375 310.230469 138.335938 310.230469 C 140.78125 310.230469 143.179688 310.789063 145.34375 311.824219 C 145.390625 310.628906 145.523438 309.429688 145.753906 308.238281 C 147.648438 298.246094 156.179688 290.40625 166.496094 289.171875 C 173.25 288.375 179.851563 290.25 185.03125 294.5 C 188.746094 297.546875 191.378906 301.5 192.714844 305.929688 C 196.648438 302.714844 201.589844 300.933594 206.839844 300.933594 C 219.058594 300.933594 229.011719 310.695313 229.011719 322.691406 C 229.011719 322.855469 229.003906 323.019531 229.003906 323.191406 C 237.773438 325.949219 243.929688 334.074219 243.929688 343.273438 C 243.941406 354.914063 234.300781 364.375 222.449219 364.375 Z M 174.433594 364.375 L 172.648438 364.375 C 171.269531 364.375 170.148438 363.253906 170.148438 361.875 C 170.148438 360.496094 171.269531 359.375 172.648438 359.375 L 174.433594 359.375 C 175.816406 359.375 176.933594 360.496094 176.933594 361.875 C 176.933594 363.253906 175.820313 364.375 174.433594 364.375 Z "/>
<path style=" stroke:none;fill-rule:nonzero;fill:#472B29;fill-opacity:1;" d="M 213.960938 335.519531 C 213.871094 335.519531 213.78125 335.511719 213.683594 335.488281 C 213.011719 335.339844 212.585938 334.671875 212.738281 333.996094 C 212.925781 333.175781 213.210938 332.378906 213.574219 331.625 C 216.574219 325.566406 224.839844 323.324219 231.996094 326.628906 C 232.625 326.921875 232.898438 327.664063 232.605469 328.289063 C 232.320313 328.914063 231.558594 329.191406 230.949219 328.898438 C 225 326.148438 218.226563 327.875 215.820313 332.730469 C 215.539063 333.304688 215.324219 333.914063 215.183594 334.546875 C 215.046875 335.125 214.53125 335.519531 213.960938 335.519531 Z "/>
<path style=" stroke:none;fill-rule:nonzero;fill:#472B29;fill-opacity:1;" d="M 188.316406 364.375 L 182.808594 364.375 C 181.429688 364.375 180.308594 363.253906 180.308594 361.875 C 180.308594 360.496094 181.429688 359.375 182.808594 359.375 L 188.316406 359.375 C 189.695313 359.375 190.816406 360.496094 190.816406 361.875 C 190.816406 363.253906 189.695313 364.375 188.316406 364.375 Z "/>
<path style=" stroke:none;fill-rule:nonzero;fill:#FFFFFF;fill-opacity:1;" d="M 444.429688 264.441406 L 388.886719 264.441406 C 387.503906 264.441406 386.386719 263.320313 386.386719 261.941406 C 386.386719 260.558594 387.503906 259.441406 388.886719 259.441406 L 444.429688 259.441406 C 445.808594 259.441406 446.929688 260.558594 446.929688 261.941406 C 446.929688 263.320313 445.816406 264.441406 444.429688 264.441406 Z "/>
<path style=" stroke:none;fill-rule:nonzero;fill:#FFFFFF;fill-opacity:1;" d="M 457.78125 264.441406 L 451.078125 264.441406 C 449.699219 264.441406 448.578125 263.320313 448.578125 261.941406 C 448.578125 260.558594 449.699219 259.441406 451.078125 259.441406 L 457.78125 259.441406 C 459.160156 259.441406 460.28125 260.558594 460.28125 261.941406 C 460.28125 263.320313 459.164063 264.441406 457.78125 264.441406 Z "/>
<path style=" stroke:none;fill-rule:nonzero;fill:#FFFFFF;fill-opacity:1;" d="M 466.570313 264.441406 L 464.773438 264.441406 C 463.394531 264.441406 462.273438 263.320313 462.273438 261.941406 C 462.273438 260.558594 463.394531 259.441406 464.773438 259.441406 L 466.570313 259.441406 C 467.949219 259.441406 469.070313 260.558594 469.070313 261.941406 C 469.070313 263.320313 467.949219 264.441406 466.570313 264.441406 Z "/>
<path style=" stroke:none;fill-rule:nonzero;fill:#FFFFFF;fill-opacity:1;" d="M 471.570313 273.710938 L 432.011719 273.710938 C 430.628906 273.710938 429.511719 272.589844 429.511719 271.210938 C 429.511719 269.828125 430.628906 268.710938 432.011719 268.710938 L 471.570313 268.710938 C 472.949219 268.710938 474.070313 269.828125 474.070313 271.210938 C 474.070313 272.589844 472.949219 273.710938 471.570313 273.710938 Z "/>
<path style=" stroke:none;fill-rule:nonzero;fill:#FFFFFF;fill-opacity:1;" d="M 423.980469 273.710938 L 421.296875 273.710938 C 419.914063 273.710938 418.796875 272.589844 418.796875 271.210938 C 418.796875 269.828125 419.914063 268.710938 421.296875 268.710938 L 423.980469 268.710938 C 425.359375 268.710938 426.480469 269.828125 426.480469 271.210938 C 426.480469 272.589844 425.363281 273.710938 423.980469 273.710938 Z "/>
<path style=" stroke:none;fill-rule:nonzero;fill:#FFFFFF;fill-opacity:1;" d="M 412.964844 273.710938 L 406.214844 273.710938 C 404.835938 273.710938 403.714844 272.589844 403.714844 271.210938 C 403.714844 269.828125 404.835938 268.710938 406.214844 268.710938 L 412.964844 268.710938 C 414.34375 268.710938 415.464844 269.828125 415.464844 271.210938 C 415.464844 272.589844 414.351563 273.710938 412.964844 273.710938 Z "/>
<path style=" stroke:none;fill-rule:nonzero;fill:#FFFFFF;fill-opacity:1;" d="M 455.304688 255.171875 L 432.011719 255.171875 C 430.628906 255.171875 429.511719 254.050781 429.511719 252.671875 C 429.511719 251.289063 430.628906 250.171875 432.011719 250.171875 L 455.304688 250.171875 C 456.683594 250.171875 457.804688 251.289063 457.804688 252.671875 C 457.804688 254.050781 456.683594 255.171875 455.304688 255.171875 Z "/>
<path style=" stroke:none;fill-rule:nonzero;fill:#FFFFFF;fill-opacity:1;" d="M 455.304688 245.898438 L 449.480469 245.898438 C 448.101563 245.898438 446.980469 244.78125 446.980469 243.398438 C 446.980469 242.019531 448.101563 240.898438 449.480469 240.898438 L 455.304688 240.898438 C 456.683594 240.898438 457.804688 242.019531 457.804688 243.398438 C 457.804688 244.78125 456.683594 245.898438 455.304688 245.898438 Z "/>
<path style=" stroke:none;fill-rule:nonzero;fill:#FFFFFF;fill-opacity:1;" d="M 440.160156 282.980469 L 432.011719 282.980469 C 430.628906 282.980469 429.511719 281.859375 429.511719 280.480469 C 429.511719 279.101563 430.628906 277.980469 432.011719 277.980469 L 440.160156 277.980469 C 441.539063 277.980469 442.660156 279.101563 442.660156 280.480469 C 442.660156 281.859375 441.539063 282.980469 440.160156 282.980469 Z "/>
<path style=" stroke:none;fill-rule:nonzero;fill:#FFFFFF;fill-opacity:1;" d="M 71.734375 267.488281 L 47.15625 267.488281 C 45.773438 267.488281 44.65625 266.371094 44.65625 264.988281 C 44.65625 263.609375 45.773438 262.488281 47.15625 262.488281 L 71.734375 262.488281 C 73.113281 262.488281 74.234375 263.609375 74.234375 264.988281 C 74.234375 266.371094 73.121094 267.488281 71.734375 267.488281 Z "/>
<path style=" stroke:none;fill-rule:nonzero;fill:#FFFFFF;fill-opacity:1;" d="M 86.058594 267.488281 L 78.871094 267.488281 C 77.488281 267.488281 76.371094 266.371094 76.371094 264.988281 C 76.371094 263.609375 77.488281 262.488281 78.871094 262.488281 L 86.058594 262.488281 C 87.441406 262.488281 88.558594 263.609375 88.558594 264.988281 C 88.558594 266.371094 87.445313 267.488281 86.058594 267.488281 Z "/>
<path style=" stroke:none;fill-rule:nonzero;fill:#FFFFFF;fill-opacity:1;" d="M 106.21875 267.488281 L 93.566406 267.488281 C 92.183594 267.488281 91.066406 266.371094 91.066406 264.988281 C 91.066406 263.609375 92.183594 262.488281 93.566406 262.488281 L 106.21875 262.488281 C 107.601563 262.488281 108.71875 263.609375 108.71875 264.988281 C 108.71875 266.371094 107.601563 267.488281 106.21875 267.488281 Z "/>
<path style=" stroke:none;fill-rule:nonzero;fill:#FFFFFF;fill-opacity:1;" d="M 106.21875 276.761719 L 58.410156 276.761719 C 57.03125 276.761719 55.910156 275.640625 55.910156 274.261719 C 55.910156 272.878906 57.03125 271.761719 58.410156 271.761719 L 106.21875 271.761719 C 107.601563 271.761719 108.71875 272.878906 108.71875 274.261719 C 108.71875 275.640625 107.601563 276.761719 106.21875 276.761719 Z "/>
<path style=" stroke:none;fill-rule:nonzero;fill:#FFFFFF;fill-opacity:1;" d="M 49.804688 276.761719 L 46.921875 276.761719 C 45.539063 276.761719 44.421875 275.640625 44.421875 274.261719 C 44.421875 272.878906 45.539063 271.761719 46.921875 271.761719 L 49.800781 271.761719 C 51.179688 271.761719 52.300781 272.878906 52.300781 274.261719 C 52.300781 275.640625 51.183594 276.761719 49.804688 276.761719 Z "/>
<path style=" stroke:none;fill-rule:nonzero;fill:#FFFFFF;fill-opacity:1;" d="M 83.40625 258.214844 L 58.410156 258.214844 C 57.03125 258.214844 55.910156 257.09375 55.910156 255.714844 C 55.910156 254.335938 57.03125 253.214844 58.410156 253.214844 L 83.40625 253.214844 C 84.785156 253.214844 85.90625 254.335938 85.90625 255.714844 C 85.90625 257.09375 84.789063 258.214844 83.40625 258.214844 Z "/>
<path style=" stroke:none;fill-rule:nonzero;fill:#FFFFFF;fill-opacity:1;" d="M 83.40625 248.945313 L 77.15625 248.945313 C 75.773438 248.945313 74.65625 247.824219 74.65625 246.445313 C 74.65625 245.066406 75.773438 243.945313 77.15625 243.945313 L 83.40625 243.945313 C 84.785156 243.945313 85.90625 245.066406 85.90625 246.445313 C 85.90625 247.824219 84.789063 248.945313 83.40625 248.945313 Z "/>
<path style=" stroke:none;fill-rule:nonzero;fill:#FFFFFF;fill-opacity:1;" d="M 67.15625 286.03125 L 58.410156 286.03125 C 57.03125 286.03125 55.910156 284.910156 55.910156 283.53125 C 55.910156 282.148438 57.03125 281.03125 58.410156 281.03125 L 67.15625 281.03125 C 68.535156 281.03125 69.65625 282.148438 69.65625 283.53125 C 69.65625 284.910156 68.539063 286.03125 67.15625 286.03125 Z "/>
<path style=" stroke:none;fill-rule:nonzero;fill:#FDFCEE;fill-opacity:1;" d="M 368.914063 351.496094 L 368.914063 225.199219 C 373.71875 223.78125 378.351563 219.683594 378.351563 213.871094 C 378.351563 212.453125 370.15625 159.460938 370.15625 159.460938 L 372.488281 147.230469 C 372.488281 143.488281 369.226563 140.429688 365.234375 140.429688 L 165.085938 140.429688 C 161.09375 140.429688 157.828125 143.488281 157.828125 147.230469 L 160.03125 159.460938 C 160.03125 159.460938 150.984375 212.058594 150.984375 213.554688 C 150.984375 219.679688 152.898438 222.21875 157.921875 224.109375 L 157.824219 225.199219 L 157.824219 351.496094 "/>
<path style=" stroke:none;fill-rule:nonzero;fill:#472B29;fill-opacity:1;" d="M 368.914063 354.996094 C 366.980469 354.996094 365.414063 353.429688 365.414063 351.496094 L 365.414063 225.199219 C 365.414063 223.648438 366.433594 222.285156 367.925781 221.84375 C 371.371094 220.824219 374.855469 217.964844 374.855469 213.871094 C 374.695313 212.011719 369.890625 180.605469 366.703125 159.996094 C 366.640625 159.601563 366.648438 159.195313 366.726563 158.804688 L 368.984375 146.964844 C 368.824219 145.296875 367.175781 143.929688 365.238281 143.929688 L 165.089844 143.929688 C 163.148438 143.929688 161.496094 145.300781 161.34375 146.980469 L 163.480469 158.839844 C 163.554688 159.238281 163.558594 159.648438 163.484375 160.054688 C 159.976563 180.46875 154.679688 211.621094 154.480469 213.769531 C 154.488281 218.320313 155.601563 219.5 159.164063 220.839844 C 160.628906 221.394531 161.550781 222.851563 161.414063 224.410156 L 161.320313 225.5 L 161.335938 351.5 C 161.335938 353.433594 159.769531 355 157.835938 355 C 155.898438 355 154.335938 353.433594 154.335938 351.5 L 154.335938 226.339844 C 149.503906 223.824219 147.488281 219.953125 147.488281 213.554688 C 147.488281 212.085938 152.359375 183.480469 156.484375 159.476563 L 154.394531 147.851563 C 154.355469 147.644531 154.335938 147.433594 154.335938 147.230469 C 154.335938 141.550781 159.160156 136.925781 165.089844 136.925781 L 365.238281 136.925781 C 371.175781 136.925781 375.996094 141.546875 375.996094 147.230469 C 375.996094 147.449219 375.976563 147.671875 375.929688 147.886719 L 373.710938 159.519531 C 377.449219 183.695313 381.855469 212.488281 381.855469 213.871094 C 381.855469 220.488281 377.429688 225.273438 372.414063 227.609375 L 372.414063 351.5 C 372.414063 353.429688 370.851563 354.996094 368.914063 354.996094 Z "/>
<path style=" stroke:none;fill-rule:nonzero;fill:#C0E5E4;fill-opacity:1;" d="M 172.140625 220.011719 L 172.140625 341.113281 L 300.941406 341.113281 L 300.941406 216.550781 "/>
<path style=" stroke:none;fill-rule:nonzero;fill:#C0E5E4;fill-opacity:1;" d="M 311.671875 216.550781 L 311.671875 337.65625 L 358.179688 337.65625 L 358.179688 213.089844 "/>
<path style=" stroke:none;fill-rule:nonzero;fill:#472B29;fill-opacity:1;" d="M 356.394531 341.261719 L 309.878906 341.261719 C 308.84375 341.261719 308.003906 340.421875 308.003906 339.386719 L 308.003906 263.261719 C 308.003906 262.226563 308.84375 261.386719 309.878906 261.386719 C 310.914063 261.386719 311.753906 262.226563 311.753906 263.261719 L 311.753906 337.511719 L 354.519531 337.511719 L 354.519531 221.738281 C 354.519531 220.703125 355.359375 219.863281 356.394531 219.863281 C 357.429688 219.863281 358.269531 220.703125 358.269531 221.738281 L 358.269531 339.386719 C 358.269531 340.421875 357.429688 341.261719 356.394531 341.261719 Z "/>
<path style=" stroke:none;fill-rule:nonzero;fill:#472B29;fill-opacity:1;" d="M 309.878906 254.753906 C 308.84375 254.753906 308.003906 253.914063 308.003906 252.878906 L 308.003906 245.960938 C 308.003906 244.925781 308.84375 244.085938 309.878906 244.085938 C 310.914063 244.085938 311.753906 244.925781 311.753906 245.960938 L 311.753906 252.878906 C 311.753906 253.914063 310.914063 254.753906 309.878906 254.753906 Z "/>
<path style=" stroke:none;fill-rule:nonzero;fill:#472B29;fill-opacity:1;" d="M 309.878906 240.914063 C 308.84375 240.914063 308.003906 240.074219 308.003906 239.039063 L 308.003906 225.199219 C 308.003906 224.164063 308.84375 223.324219 309.878906 223.324219 C 310.914063 223.324219 311.753906 224.164063 311.753906 225.199219 L 311.753906 239.039063 C 311.753906 240.074219 310.914063 240.914063 309.878906 240.914063 Z "/>
<path style=" stroke:none;fill-rule:nonzero;fill:#472B29;fill-opacity:1;" d="M 170.351563 313.578125 C 169.316406 313.578125 168.476563 312.738281 168.476563 311.703125 L 168.476563 225.199219 C 168.476563 224.164063 169.316406 223.324219 170.351563 223.324219 C 171.386719 223.324219 172.226563 224.164063 172.226563 225.199219 L 172.226563 311.703125 C 172.226563 312.738281 171.386719 313.578125 170.351563 313.578125 Z "/>
<path style=" stroke:none;fill-rule:nonzero;fill:#472B29;fill-opacity:1;" d="M 170.351563 330.878906 C 169.316406 330.878906 168.476563 330.039063 168.476563 329.003906 L 168.476563 322.085938 C 168.476563 321.050781 169.316406 320.210938 170.351563 320.210938 C 171.386719 320.210938 172.226563 321.050781 172.226563 322.085938 L 172.226563 329.003906 C 172.226563 330.039063 171.386719 330.878906 170.351563 330.878906 Z "/>
<path style=" stroke:none;fill-rule:nonzero;fill:#472B29;fill-opacity:1;" d="M 299.148438 341.261719 L 173.929688 341.261719 C 172.894531 341.261719 172.054688 340.421875 172.054688 339.386719 C 172.054688 338.351563 172.894531 337.511719 173.929688 337.511719 L 297.273438 337.511719 L 297.273438 221.738281 C 297.273438 220.703125 298.113281 219.863281 299.148438 219.863281 C 300.183594 219.863281 301.023438 220.703125 301.023438 221.738281 L 301.023438 339.386719 C 301.023438 340.421875 300.183594 341.261719 299.148438 341.261719 Z "/>
<path style=" stroke:none;fill-rule:nonzero;fill:#FFFFFF;fill-opacity:1;" d="M 349.234375 278.828125 C 349.234375 275.964844 346.832031 273.640625 343.871094 273.640625 C 340.90625 273.640625 338.503906 275.964844 338.503906 278.828125 C 338.503906 281.695313 340.90625 284.019531 343.871094 284.019531 C 346.832031 284.019531 349.234375 281.695313 349.234375 278.828125 Z "/>
<path style=" stroke:none;fill-rule:nonzero;fill:#472B29;fill-opacity:1;" d="M 343.871094 285.894531 C 339.875 285.894531 336.628906 282.726563 336.628906 278.828125 C 336.628906 274.933594 339.875 271.765625 343.871094 271.765625 C 347.863281 271.765625 351.109375 274.933594 351.109375 278.828125 C 351.109375 282.726563 347.863281 285.894531 343.871094 285.894531 Z M 343.871094 275.515625 C 341.945313 275.515625 340.378906 277 340.378906 278.828125 C 340.378906 280.660156 341.945313 282.144531 343.871094 282.144531 C 345.796875 282.144531 347.359375 280.660156 347.359375 278.828125 C 347.359375 277 345.796875 275.515625 343.871094 275.515625 Z "/>
<path style=" stroke:none;fill-rule:nonzero;fill:#FDFCEE;fill-opacity:1;" d="M 221.660156 270.359375 L 231.796875 259.609375 "/>
<path style=" stroke:none;fill-rule:nonzero;fill:#472B29;fill-opacity:1;" d="M 221.660156 272.234375 C 221.195313 272.234375 220.734375 272.066406 220.375 271.726563 C 219.621094 271.015625 219.585938 269.828125 220.296875 269.074219 L 230.429688 258.324219 C 231.144531 257.574219 232.328125 257.539063 233.074219 258.246094 C 233.828125 258.953125 233.863281 260.140625 233.15625 260.894531 L 223.019531 271.644531 C 222.65625 272.039063 222.15625 272.234375 221.660156 272.234375 Z "/>
<path style=" stroke:none;fill-rule:nonzero;fill:#FDFCEE;fill-opacity:1;" d="M 247.246094 266.105469 L 233.875 259.015625 "/>
<path style=" stroke:none;fill-rule:nonzero;fill:#472B29;fill-opacity:1;" d="M 247.246094 267.980469 C 246.945313 267.980469 246.644531 267.910156 246.363281 267.761719 L 232.996094 260.671875 C 232.078125 260.183594 231.730469 259.050781 232.21875 258.136719 C 232.710938 257.214844 233.851563 256.875 234.753906 257.359375 L 248.125 264.449219 C 249.039063 264.933594 249.390625 266.070313 248.898438 266.984375 C 248.558594 267.613281 247.914063 267.980469 247.246094 267.980469 Z "/>
<path style=" stroke:none;fill-rule:nonzero;fill:#FDFCEE;fill-opacity:1;" d="M 234.726563 258.738281 C 234.890625 259.644531 234.230469 260.5 233.253906 260.648438 C 232.28125 260.800781 231.359375 260.191406 231.195313 259.289063 C 231.03125 258.390625 231.691406 257.53125 232.664063 257.378906 C 233.640625 257.226563 234.558594 257.835938 234.726563 258.738281 Z "/>
<path style=" stroke:none;fill-rule:nonzero;fill:#472B29;fill-opacity:1;" d="M 232.960938 262.546875 C 231.210938 262.546875 229.65625 261.324219 229.351563 259.613281 C 229.183594 258.710938 229.390625 257.78125 229.933594 257.015625 C 230.496094 256.21875 231.386719 255.675781 232.371094 255.523438 C 234.371094 255.21875 236.226563 256.511719 236.566406 258.40625 C 236.730469 259.320313 236.519531 260.246094 235.980469 261.011719 C 235.414063 261.804688 234.523438 262.351563 233.539063 262.5 C 233.351563 262.53125 233.148438 262.546875 232.960938 262.546875 Z M 232.878906 259.066406 C 232.898438 259.164063 232.953125 259.21875 232.980469 259.230469 C 232.96875 259.226563 232.878906 259.070313 232.878906 259.066406 Z "/>
<path style=" stroke:none;fill-rule:nonzero;fill:#CBC9BC;fill-opacity:1;" d="M 272.851563 280.546875 L 204.558594 291.183594 L 201.445313 273.980469 L 269.730469 263.34375 Z "/>
<path style=" stroke:none;fill-rule:nonzero;fill:#472B29;fill-opacity:1;" d="M 204.558594 293.058594 C 203.664063 293.058594 202.878906 292.425781 202.714844 291.519531 L 199.601563 274.316406 C 199.511719 273.816406 199.625 273.304688 199.914063 272.894531 C 200.210938 272.480469 200.65625 272.203125 201.15625 272.128906 L 269.445313 261.496094 C 270.5 261.339844 271.394531 262.015625 271.578125 263.015625 L 274.695313 280.21875 C 274.785156 280.71875 274.671875 281.230469 274.378906 281.640625 C 274.085938 282.054688 273.640625 282.328125 273.140625 282.40625 L 204.851563 293.039063 C 204.75 293.050781 204.648438 293.058594 204.558594 293.058594 Z M 203.628906 275.535156 L 206.074219 289.050781 L 270.660156 278.988281 L 268.214844 265.476563 Z "/>
<path style=" stroke:none;fill-rule:nonzero;fill:#FFFFFF;fill-opacity:1;" d="M 177.503906 159.453125 L 160.03125 159.453125 L 151.105469 208.75 C 151.105469 208.75 151.03125 208.765625 151.023438 208.765625 C 151.023438 208.78125 151.023438 208.75 151.023438 208.765625 C 150.96875 209.910156 150.941406 211.128906 150.941406 212.484375 C 150.941406 219.480469 156.199219 225.199219 162.628906 225.199219 L 164.65625 225.199219 C 171.085938 225.199219 177.511719 219.480469 177.511719 212.484375 C 177.511719 211.140625 177.554688 209.90625 177.511719 208.765625 L 177.511719 159.453125 Z "/>
<path style=" stroke:none;fill-rule:nonzero;fill:#472B29;fill-opacity:1;" d="M 164.648438 227.074219 L 162.625 227.074219 C 155.148438 227.074219 149.066406 220.53125 149.066406 212.484375 C 149.066406 211.101563 149.101563 209.855469 149.148438 208.683594 C 149.164063 208.410156 149.234375 208.148438 149.355469 207.914063 L 158.191406 159.125 C 158.351563 158.234375 159.128906 157.585938 160.035156 157.585938 L 177.511719 157.585938 C 178.546875 157.585938 179.386719 158.425781 179.386719 159.460938 L 179.386719 208.765625 C 179.414063 209.476563 179.40625 210.296875 179.394531 211.164063 L 179.386719 212.484375 C 179.386719 220.253906 172.5 227.074219 164.648438 227.074219 Z M 152.875 209.371094 C 152.839844 210.339844 152.816406 211.363281 152.816406 212.484375 C 152.816406 218.460938 157.214844 223.324219 162.625 223.324219 L 164.648438 223.324219 C 169.835938 223.324219 175.628906 218.691406 175.628906 212.484375 L 175.640625 211.121094 C 175.648438 210.316406 175.660156 209.558594 175.628906 208.835938 L 175.628906 161.328125 L 161.601563 161.328125 L 152.953125 209.078125 C 152.933594 209.179688 152.910156 209.273438 152.875 209.371094 Z "/>
<path style=" stroke:none;fill-rule:nonzero;fill:#EE3E54;fill-opacity:1;" d="M 202.550781 159.453125 L 177.503906 159.453125 L 177.503906 207.898438 L 177.589844 207.898438 C 177.535156 209.101563 177.503906 210.394531 177.503906 211.816406 C 177.503906 219.175781 183.039063 225.199219 189.808594 225.199219 L 191.421875 225.199219 C 197.945313 225.199219 202.550781 219.480469 202.550781 212.484375 C 202.550781 211.140625 202.59375 209.90625 202.550781 208.765625 Z "/>
<path style=" stroke:none;fill-rule:nonzero;fill:#472B29;fill-opacity:1;" d="M 191.421875 227.074219 L 189.808594 227.074219 C 181.996094 227.074219 175.636719 220.230469 175.636719 211.816406 C 175.636719 210.574219 175.65625 209.429688 175.699219 208.359375 C 175.65625 208.210938 175.636719 208.054688 175.636719 207.898438 L 175.636719 159.460938 C 175.636719 158.425781 176.476563 157.585938 177.511719 157.585938 L 202.554688 157.585938 C 203.589844 157.585938 204.429688 158.425781 204.429688 159.460938 L 204.429688 208.765625 C 204.460938 209.476563 204.449219 210.296875 204.441406 211.164063 L 204.429688 212.484375 C 204.425781 220.800781 198.835938 227.074219 191.421875 227.074219 Z M 179.386719 207.394531 C 179.445313 207.585938 179.476563 207.78125 179.46875 207.980469 C 179.414063 209.15625 179.386719 210.421875 179.386719 211.816406 C 179.386719 218.160156 184.066406 223.324219 189.808594 223.324219 L 191.421875 223.324219 C 196.699219 223.324219 200.679688 218.664063 200.679688 212.484375 L 200.691406 211.121094 C 200.699219 210.316406 200.710938 209.558594 200.679688 208.835938 L 200.679688 161.328125 L 179.386719 161.328125 Z "/>
<path style=" stroke:none;fill-rule:nonzero;fill:#FFFFFF;fill-opacity:1;" d="M 227.59375 159.453125 L 202.550781 159.453125 L 202.550781 207.898438 L 202.636719 207.898438 C 202.578125 209.101563 202.550781 210.394531 202.550781 211.816406 C 202.550781 219.175781 208.085938 225.199219 214.855469 225.199219 L 216.464844 225.199219 C 222.988281 225.199219 227.59375 219.480469 227.59375 212.484375 C 227.59375 211.140625 227.640625 209.90625 227.59375 208.765625 Z "/>
<path style=" stroke:none;fill-rule:nonzero;fill:#472B29;fill-opacity:1;" d="M 216.464844 227.074219 L 214.851563 227.074219 C 207.035156 227.074219 200.675781 220.230469 200.675781 211.816406 C 200.675781 210.574219 200.695313 209.429688 200.738281 208.359375 C 200.695313 208.210938 200.675781 208.054688 200.675781 207.898438 L 200.675781 159.460938 C 200.675781 158.425781 201.515625 157.585938 202.550781 157.585938 L 227.59375 157.585938 C 228.628906 157.585938 229.46875 158.425781 229.46875 159.460938 L 229.46875 208.765625 C 229.5 209.476563 229.488281 210.296875 229.480469 211.164063 L 229.46875 212.484375 C 229.46875 220.800781 223.878906 227.074219 216.464844 227.074219 Z M 204.425781 207.394531 C 204.484375 207.585938 204.515625 207.78125 204.511719 207.980469 C 204.453125 209.15625 204.425781 210.421875 204.425781 211.816406 C 204.425781 218.160156 209.105469 223.324219 214.851563 223.324219 L 216.460938 223.324219 C 221.738281 223.324219 225.71875 218.664063 225.71875 212.484375 L 225.730469 211.121094 C 225.738281 210.316406 225.75 209.558594 225.71875 208.835938 L 225.71875 161.328125 L 204.425781 161.328125 Z "/>
<path style=" stroke:none;fill-rule:nonzero;fill:#EE3E54;fill-opacity:1;" d="M 252.640625 159.453125 L 227.59375 159.453125 L 227.59375 207.898438 L 227.679688 207.898438 C 227.625 209.101563 227.59375 210.394531 227.59375 211.816406 C 227.59375 219.175781 233.128906 225.199219 239.898438 225.199219 L 241.511719 225.199219 C 248.035156 225.199219 252.640625 219.480469 252.640625 212.484375 C 252.640625 211.140625 252.683594 209.90625 252.640625 208.765625 Z "/>
<path style=" stroke:none;fill-rule:nonzero;fill:#472B29;fill-opacity:1;" d="M 241.511719 227.074219 L 239.894531 227.074219 C 232.078125 227.074219 225.71875 220.230469 225.71875 211.816406 C 225.71875 210.574219 225.738281 209.429688 225.785156 208.359375 C 225.738281 208.210938 225.71875 208.054688 225.71875 207.898438 L 225.71875 159.460938 C 225.71875 158.425781 226.558594 157.585938 227.59375 157.585938 L 252.640625 157.585938 C 253.675781 157.585938 254.515625 158.425781 254.515625 159.460938 L 254.515625 208.765625 C 254.546875 209.476563 254.535156 210.296875 254.523438 211.164063 L 254.515625 212.484375 C 254.515625 220.800781 248.925781 227.074219 241.511719 227.074219 Z M 229.46875 207.394531 C 229.53125 207.585938 229.558594 207.78125 229.554688 207.980469 C 229.5 209.15625 229.46875 210.421875 229.46875 211.816406 C 229.46875 218.160156 234.148438 223.324219 239.894531 223.324219 L 241.511719 223.324219 C 246.785156 223.324219 250.765625 218.664063 250.765625 212.484375 L 250.773438 211.121094 C 250.785156 210.316406 250.796875 209.558594 250.765625 208.835938 L 250.765625 161.328125 L 229.46875 161.328125 Z "/>
<path style=" stroke:none;fill-rule:nonzero;fill:#FFFFFF;fill-opacity:1;" d="M 277.683594 159.453125 L 252.640625 159.453125 L 252.640625 207.898438 L 252.726563 207.898438 C 252.671875 209.101563 252.640625 210.394531 252.640625 211.816406 C 252.640625 219.175781 258.175781 225.199219 264.945313 225.199219 L 266.554688 225.199219 C 273.078125 225.199219 277.683594 219.480469 277.683594 212.484375 C 277.683594 211.140625 277.730469 209.90625 277.683594 208.765625 Z "/>
<path style=" stroke:none;fill-rule:nonzero;fill:#472B29;fill-opacity:1;" d="M 266.554688 227.074219 L 264.941406 227.074219 C 257.125 227.074219 250.765625 220.230469 250.765625 211.816406 C 250.765625 210.574219 250.785156 209.429688 250.828125 208.359375 C 250.785156 208.210938 250.765625 208.054688 250.765625 207.898438 L 250.765625 159.460938 C 250.765625 158.425781 251.605469 157.585938 252.640625 157.585938 L 277.683594 157.585938 C 278.71875 157.585938 279.558594 158.425781 279.558594 159.460938 L 279.558594 208.765625 C 279.589844 209.476563 279.578125 210.296875 279.570313 211.164063 L 279.558594 212.484375 C 279.558594 220.800781 273.96875 227.074219 266.554688 227.074219 Z M 254.515625 207.394531 C 254.574219 207.585938 254.605469 207.78125 254.601563 207.980469 C 254.546875 209.15625 254.515625 210.421875 254.515625 211.816406 C 254.515625 218.160156 259.195313 223.324219 264.941406 223.324219 L 266.554688 223.324219 C 271.828125 223.324219 275.808594 218.664063 275.808594 212.484375 L 275.820313 211.121094 C 275.828125 210.316406 275.839844 209.558594 275.808594 208.835938 L 275.808594 161.328125 L 254.515625 161.328125 Z "/>
<path style=" stroke:none;fill-rule:nonzero;fill:#EE3E54;fill-opacity:1;" d="M 302.726563 159.453125 L 277.679688 159.453125 L 277.679688 207.898438 L 277.765625 207.898438 C 277.710938 209.101563 277.679688 210.394531 277.679688 211.816406 C 277.679688 219.175781 283.214844 225.199219 289.984375 225.199219 L 291.59375 225.199219 C 298.121094 225.199219 302.726563 219.386719 302.726563 212.394531 C 302.726563 211.050781 302.769531 209.910156 302.726563 208.765625 Z "/>
<path style=" stroke:none;fill-rule:nonzero;fill:#472B29;fill-opacity:1;" d="M 291.601563 227.074219 L 289.988281 227.074219 C 282.175781 227.074219 275.808594 220.230469 275.808594 211.816406 C 275.808594 210.574219 275.828125 209.429688 275.875 208.359375 C 275.828125 208.210938 275.808594 208.054688 275.808594 207.898438 L 275.808594 159.460938 C 275.808594 158.425781 276.648438 157.585938 277.683594 157.585938 L 302.730469 157.585938 C 303.765625 157.585938 304.605469 158.425781 304.605469 159.460938 L 304.605469 208.765625 C 304.636719 209.46875 304.625 210.25 304.613281 211.089844 L 304.605469 212.394531 C 304.601563 220.625 298.890625 227.074219 291.601563 227.074219 Z M 279.558594 207.394531 C 279.621094 207.585938 279.648438 207.78125 279.644531 207.980469 C 279.589844 209.15625 279.558594 210.421875 279.558594 211.816406 C 279.558594 218.160156 284.238281 223.324219 289.988281 223.324219 L 291.601563 223.324219 C 296.875 223.324219 300.855469 218.625 300.855469 212.394531 L 300.863281 211.039063 C 300.875 210.269531 300.886719 209.550781 300.855469 208.835938 L 300.855469 161.328125 L 279.558594 161.328125 Z "/>
<path style=" stroke:none;fill-rule:nonzero;fill:#FFFFFF;fill-opacity:1;" d="M 327.769531 159.453125 L 302.726563 159.453125 L 302.726563 207.898438 L 302.753906 207.898438 C 302.734375 208.714844 302.726563 209.554688 302.726563 210.453125 C 302.726563 218.566406 308.269531 225.199219 315.046875 225.199219 L 316.660156 225.199219 C 323.191406 225.199219 327.785156 218.730469 327.785156 211.023438 C 327.785156 210.175781 327.789063 209.539063 327.769531 208.765625 Z "/>
<path style=" stroke:none;fill-rule:nonzero;fill:#472B29;fill-opacity:1;" d="M 316.660156 227.074219 L 315.050781 227.074219 C 307.226563 227.074219 300.855469 219.621094 300.855469 210.453125 C 300.855469 209.664063 300.863281 208.914063 300.878906 208.183594 C 300.863281 208.089844 300.855469 207.996094 300.855469 207.898438 L 300.855469 159.460938 C 300.855469 158.425781 301.695313 157.585938 302.730469 157.585938 L 327.773438 157.585938 C 328.808594 157.585938 329.648438 158.425781 329.648438 159.460938 L 329.664063 211.023438 C 329.660156 220.019531 323.949219 227.074219 316.660156 227.074219 Z M 304.601563 207.578125 C 304.621094 207.699219 304.628906 207.820313 304.628906 207.941406 C 304.609375 208.746094 304.601563 209.570313 304.601563 210.449219 C 304.601563 217.546875 309.289063 223.320313 315.046875 223.320313 L 316.65625 223.320313 C 321.84375 223.320313 325.910156 217.914063 325.910156 211.019531 L 325.894531 208.796875 L 325.894531 161.328125 L 304.601563 161.328125 Z "/>
<path style=" stroke:none;fill-rule:nonzero;fill:#EE3E54;fill-opacity:1;" d="M 352.816406 159.453125 L 327.769531 159.453125 L 327.769531 207.898438 L 327.855469 207.898438 C 327.800781 209.101563 327.769531 210.394531 327.769531 211.816406 C 327.769531 219.175781 333.304688 225.199219 340.074219 225.199219 L 341.683594 225.199219 C 348.210938 225.199219 352.816406 219.480469 352.816406 212.484375 C 352.816406 211.140625 352.859375 209.90625 352.816406 208.765625 Z "/>
<path style=" stroke:none;fill-rule:nonzero;fill:#472B29;fill-opacity:1;" d="M 341.683594 227.074219 L 340.074219 227.074219 C 332.261719 227.074219 325.894531 220.230469 325.894531 211.816406 C 325.894531 210.574219 325.914063 209.429688 325.960938 208.359375 C 325.914063 208.210938 325.894531 208.054688 325.894531 207.898438 L 325.894531 159.460938 C 325.894531 158.425781 326.734375 157.585938 327.769531 157.585938 L 352.816406 157.585938 C 353.851563 157.585938 354.691406 158.425781 354.691406 159.460938 L 354.691406 208.765625 C 354.71875 209.476563 354.710938 210.296875 354.699219 211.164063 L 354.691406 212.484375 C 354.691406 220.800781 349.101563 227.074219 341.683594 227.074219 Z M 329.644531 207.394531 C 329.703125 207.585938 329.734375 207.78125 329.730469 207.980469 C 329.675781 209.15625 329.644531 210.421875 329.644531 211.816406 C 329.644531 218.160156 334.324219 223.324219 340.074219 223.324219 L 341.683594 223.324219 C 346.960938 223.324219 350.941406 218.664063 350.941406 212.484375 L 350.949219 211.121094 C 350.960938 210.316406 350.96875 209.558594 350.941406 208.835938 L 350.941406 161.328125 L 329.644531 161.328125 Z "/>
<path style=" stroke:none;fill-rule:nonzero;fill:#FFFFFF;fill-opacity:1;" d="M 378.140625 208.765625 L 370.15625 159.453125 L 352.808594 159.453125 L 352.808594 207.898438 L 352.894531 207.898438 C 352.839844 209.101563 352.808594 210.394531 352.808594 211.816406 C 352.808594 219.175781 358.34375 225.199219 365.113281 225.199219 L 366.523438 225.199219 C 372.953125 225.199219 378.214844 219.480469 378.214844 212.484375 C 378.214844 211.136719 378.191406 209.910156 378.140625 208.765625 Z "/>
<path style=" stroke:none;fill-rule:nonzero;fill:#472B29;fill-opacity:1;" d="M 366.523438 227.074219 L 365.121094 227.074219 C 357.304688 227.074219 350.941406 220.230469 350.941406 211.816406 C 350.941406 210.574219 350.960938 209.429688 351.003906 208.359375 C 350.960938 208.210938 350.941406 208.054688 350.941406 207.898438 L 350.941406 159.460938 C 350.941406 158.425781 351.78125 157.585938 352.816406 157.585938 L 370.160156 157.585938 C 371.078125 157.585938 371.863281 158.25 372.011719 159.160156 L 379.996094 208.464844 C 380.011719 208.539063 380.015625 208.613281 380.019531 208.695313 C 380.066406 209.859375 380.09375 211.109375 380.09375 212.484375 C 380.089844 220.523438 374.003906 227.074219 366.523438 227.074219 Z M 354.691406 207.394531 C 354.75 207.585938 354.78125 207.78125 354.773438 207.980469 C 354.71875 209.15625 354.691406 210.421875 354.691406 211.816406 C 354.691406 218.160156 359.371094 223.324219 365.121094 223.324219 L 366.523438 223.324219 C 371.933594 223.324219 376.339844 218.460938 376.339844 212.484375 C 376.339844 211.203125 376.316406 210.039063 376.269531 208.949219 L 368.558594 161.335938 L 354.691406 161.335938 Z "/>
<path style=" stroke:none;fill-rule:nonzero;fill:#472B29;fill-opacity:1;" d="M 377.859375 213.230469 L 152.464844 213.230469 C 151.429688 213.230469 150.589844 212.390625 150.589844 211.355469 C 150.589844 210.320313 151.429688 209.480469 152.464844 209.480469 L 377.859375 209.480469 C 378.894531 209.480469 379.734375 210.320313 379.734375 211.355469 C 379.734375 212.390625 378.894531 213.230469 377.859375 213.230469 Z "/>
<path style=" stroke:none;fill-rule:nonzero;fill:#9F8066;fill-opacity:1;" d="M 150.675781 351.496094 L 379.648438 351.496094 L 379.648438 361.875 L 150.675781 361.875 Z "/>
<path style=" stroke:none;fill-rule:nonzero;fill:#472B29;fill-opacity:1;" d="M 379.644531 364.375 L 150.671875 364.375 C 149.289063 364.375 148.171875 363.253906 148.171875 361.875 L 148.171875 351.496094 C 148.171875 350.113281 149.289063 348.996094 150.671875 348.996094 L 379.644531 348.996094 C 381.023438 348.996094 382.144531 350.113281 382.144531 351.496094 L 382.144531 361.875 C 382.144531 363.253906 381.03125 364.375 379.644531 364.375 Z M 153.171875 359.375 L 377.144531 359.375 L 377.144531 353.996094 L 153.171875 353.996094 Z "/>
<path style=" stroke:none;fill-rule:nonzero;fill:#472B29;fill-opacity:1;" d="M 206.285156 291.539063 C 206.234375 291.539063 206.179688 291.535156 206.128906 291.519531 C 205.800781 291.433594 205.59375 291.09375 205.679688 290.761719 L 210.335938 272.636719 C 210.421875 272.304688 210.730469 272.09375 211.09375 272.183594 C 211.425781 272.269531 211.628906 272.609375 211.546875 272.945313 L 206.890625 291.070313 C 206.820313 291.355469 206.566406 291.539063 206.285156 291.539063 Z "/>
<path style=" stroke:none;fill-rule:nonzero;fill:#472B29;fill-opacity:1;" d="M 212.570313 290.625 C 212.519531 290.625 212.464844 290.621094 212.414063 290.605469 C 212.085938 290.519531 211.878906 290.179688 211.964844 289.84375 L 216.621094 271.71875 C 216.703125 271.390625 217.011719 271.195313 217.378906 271.269531 C 217.710938 271.355469 217.914063 271.695313 217.828125 272.03125 L 213.175781 290.15625 C 213.105469 290.441406 212.851563 290.625 212.570313 290.625 Z "/>
<path style=" stroke:none;fill-rule:nonzero;fill:#472B29;fill-opacity:1;" d="M 218.855469 289.714844 C 218.804688 289.714844 218.75 289.710938 218.699219 289.695313 C 218.371094 289.609375 218.164063 289.269531 218.25 288.933594 L 222.90625 270.816406 C 222.996094 270.484375 223.296875 270.285156 223.664063 270.363281 C 223.996094 270.449219 224.199219 270.789063 224.113281 271.125 L 219.460938 289.246094 C 219.390625 289.523438 219.136719 289.714844 218.855469 289.714844 Z "/>
<path style=" stroke:none;fill-rule:nonzero;fill:#472B29;fill-opacity:1;" d="M 225.140625 288.800781 C 225.089844 288.800781 225.035156 288.796875 224.984375 288.78125 C 224.65625 288.695313 224.449219 288.355469 224.535156 288.019531 L 229.191406 269.898438 C 229.28125 269.570313 229.59375 269.363281 229.949219 269.449219 C 230.28125 269.535156 230.484375 269.875 230.398438 270.210938 L 225.746094 288.328125 C 225.671875 288.613281 225.421875 288.800781 225.140625 288.800781 Z "/>
<path style=" stroke:none;fill-rule:nonzero;fill:#472B29;fill-opacity:1;" d="M 231.425781 287.890625 C 231.375 287.890625 231.320313 287.886719 231.269531 287.871094 C 230.941406 287.785156 230.734375 287.445313 230.820313 287.109375 L 235.476563 268.988281 C 235.558594 268.660156 235.875 268.453125 236.234375 268.539063 C 236.566406 268.625 236.769531 268.964844 236.683594 269.300781 L 232.03125 287.421875 C 231.953125 287.699219 231.699219 287.890625 231.425781 287.890625 Z "/>
<path style=" stroke:none;fill-rule:nonzero;fill:#472B29;fill-opacity:1;" d="M 237.710938 286.980469 C 237.660156 286.980469 237.605469 286.976563 237.554688 286.960938 C 237.226563 286.875 237.019531 286.535156 237.105469 286.199219 L 241.761719 268.074219 C 241.84375 267.746094 242.15625 267.535156 242.519531 267.625 C 242.851563 267.710938 243.054688 268.050781 242.96875 268.386719 L 238.316406 286.511719 C 238.238281 286.789063 237.984375 286.980469 237.710938 286.980469 Z "/>
<path style=" stroke:none;fill-rule:nonzero;fill:#472B29;fill-opacity:1;" d="M 243.988281 286.066406 C 243.941406 286.066406 243.886719 286.058594 243.835938 286.046875 C 243.503906 285.960938 243.300781 285.621094 243.386719 285.285156 L 248.039063 267.164063 C 248.125 266.835938 248.433594 266.636719 248.800781 266.714844 C 249.128906 266.800781 249.335938 267.140625 249.25 267.476563 L 244.59375 285.59375 C 244.523438 285.875 244.269531 286.066406 243.988281 286.066406 Z "/>
<path style=" stroke:none;fill-rule:nonzero;fill:#472B29;fill-opacity:1;" d="M 250.273438 284.238281 C 250.226563 284.238281 250.171875 284.234375 250.121094 284.21875 C 249.789063 284.136719 249.585938 283.796875 249.671875 283.460938 L 254.324219 265.339844 C 254.414063 265.011719 254.714844 264.804688 255.085938 264.890625 C 255.414063 264.976563 255.621094 265.316406 255.535156 265.648438 L 250.878906 283.769531 C 250.808594 284.050781 250.554688 284.238281 250.273438 284.238281 Z "/>
<path style=" stroke:none;fill-rule:nonzero;fill:#472B29;fill-opacity:1;" d="M 256.871094 283.960938 C 256.820313 283.960938 256.765625 283.953125 256.714844 283.941406 C 256.386719 283.855469 256.179688 283.515625 256.265625 283.179688 L 260.921875 265.058594 C 261.011719 264.730469 261.308594 264.53125 261.679688 264.609375 C 262.011719 264.695313 262.214844 265.035156 262.128906 265.371094 L 257.476563 283.488281 C 257.398438 283.769531 257.144531 283.960938 256.871094 283.960938 Z "/>
<path style=" stroke:none;fill-rule:nonzero;fill:#472B29;fill-opacity:1;" d="M 262.84375 283.328125 C 262.796875 283.328125 262.738281 283.324219 262.691406 283.308594 C 262.359375 283.226563 262.15625 282.886719 262.238281 282.550781 L 266.894531 264.425781 C 266.984375 264.09375 267.296875 263.886719 267.65625 263.976563 C 267.984375 264.058594 268.191406 264.398438 268.105469 264.734375 L 263.449219 282.859375 C 263.375 283.140625 263.125 283.328125 262.84375 283.328125 Z "/>
<path style=" stroke:none;fill-rule:nonzero;fill:#FDFCEF;fill-opacity:1;" d="M 373.921875 374.933594 C 383.378906 374.933594 391.585938 374.933594 391.699219 374.933594 C 402.300781 374.933594 410.890625 366.523438 410.890625 356.15625 C 410.890625 347.105469 404.351563 339.554688 395.644531 337.773438 C 395.746094 336.984375 395.816406 336.179688 395.816406 335.359375 C 395.816406 324.613281 386.914063 315.90625 375.941406 315.90625 C 369.460938 315.90625 363.71875 318.953125 360.089844 323.65625 C 359.160156 311.695313 348.25 302.46875 335.480469 304 C 326.144531 305.121094 318.421875 312.179688 316.699219 321.234375 C 316.148438 324.140625 316.203125 326.953125 316.753906 329.601563 C 314.25 326.960938 310.691406 325.300781 306.71875 325.300781 C 299.453125 325.300781 293.523438 330.835938 293.058594 337.828125 C 289.761719 337.113281 286.175781 337.160156 282.394531 338.550781 C 275.171875 341.203125 270.03125 347.859375 269.726563 355.40625 C 269.296875 366.121094 278.046875 374.941406 288.898438 374.941406 C 289.726563 374.941406 292.621094 374.941406 293.289063 374.941406 L 333.140625 374.941406 M 341.390625 374.933594 L 343.195313 374.933594 "/>
<path style=" stroke:none;fill-rule:nonzero;fill:#472B29;fill-opacity:1;" d="M 391.699219 377.433594 L 373.921875 377.433594 C 372.539063 377.433594 371.421875 376.316406 371.421875 374.933594 C 371.421875 373.554688 372.539063 372.433594 373.921875 372.433594 L 391.699219 372.433594 C 400.90625 372.433594 408.394531 365.128906 408.394531 356.15625 C 408.394531 348.496094 402.824219 341.789063 395.144531 340.21875 C 393.863281 339.960938 393 338.75 393.164063 337.449219 C 393.253906 336.761719 393.316406 336.066406 393.316406 335.355469 C 393.316406 326.011719 385.515625 318.40625 375.933594 318.40625 C 370.445313 318.40625 365.394531 320.875 362.070313 325.179688 C 361.441406 326 360.359375 326.339844 359.378906 326.046875 C 358.390625 325.75 357.679688 324.875 357.605469 323.84375 C 357.203125 318.726563 354.765625 314.078125 350.71875 310.765625 C 346.558594 307.34375 341.25 305.820313 335.78125 306.480469 C 327.511719 307.46875 320.675781 313.730469 319.160156 321.695313 C 318.683594 324.175781 318.703125 326.660156 319.203125 329.089844 C 319.433594 330.183594 318.90625 331.296875 317.914063 331.808594 C 316.929688 332.324219 315.71875 332.121094 314.941406 331.316406 C 312.789063 329.046875 309.871094 327.796875 306.71875 327.796875 C 300.839844 327.796875 295.933594 332.273438 295.554688 337.988281 C 295.503906 338.714844 295.144531 339.386719 294.566406 339.820313 C 293.980469 340.261719 293.25 340.425781 292.535156 340.265625 C 289.316406 339.570313 286.289063 339.773438 283.265625 340.890625 C 276.914063 343.21875 272.484375 349.089844 272.234375 355.496094 C 272.054688 359.894531 273.648438 364.078125 276.726563 367.28125 C 279.921875 370.605469 284.246094 372.429688 288.910156 372.429688 L 333.148438 372.429688 C 334.53125 372.429688 335.648438 373.550781 335.648438 374.929688 C 335.648438 376.308594 334.53125 377.429688 333.148438 377.429688 L 288.910156 377.429688 C 282.960938 377.429688 277.203125 374.996094 273.125 370.746094 C 269.09375 366.554688 267.003906 361.066406 267.234375 355.296875 C 267.566406 346.894531 273.316406 339.21875 281.535156 336.195313 C 284.605469 335.066406 287.789063 334.65625 290.984375 334.96875 C 292.714844 327.960938 299.164063 322.789063 306.726563 322.789063 C 309.203125 322.789063 311.636719 323.359375 313.835938 324.421875 C 313.878906 323.199219 314.019531 321.980469 314.25 320.761719 C 316.164063 310.671875 324.773438 302.753906 335.191406 301.511719 C 342.035156 300.710938 348.671875 302.605469 353.898438 306.894531 C 357.65625 309.976563 360.320313 313.980469 361.671875 318.464844 C 365.640625 315.203125 370.636719 313.398438 375.945313 313.398438 C 388.285156 313.398438 398.324219 323.246094 398.324219 335.351563 C 398.324219 335.523438 398.320313 335.699219 398.316406 335.875 C 407.175781 338.65625 413.40625 346.859375 413.40625 356.144531 C 413.394531 367.890625 403.664063 377.433594 391.699219 377.433594 Z M 343.195313 377.433594 L 341.390625 377.433594 C 340.011719 377.433594 338.890625 376.316406 338.890625 374.933594 C 338.890625 373.554688 340.011719 372.433594 341.390625 372.433594 L 343.195313 372.433594 C 344.574219 372.433594 345.695313 373.554688 345.695313 374.933594 C 345.695313 376.316406 344.578125 377.433594 343.195313 377.433594 Z "/>
<path style=" stroke:none;fill-rule:nonzero;fill:#FDFCEF;fill-opacity:1;" d="M 399.476563 339.976563 C 392.804688 336.894531 385.089844 339.074219 382.246094 344.839844 C 381.890625 345.554688 381.628906 346.296875 381.453125 347.046875 "/>
<path style=" stroke:none;fill-rule:nonzero;fill:#472B29;fill-opacity:1;" d="M 381.460938 348.296875 C 381.363281 348.296875 381.273438 348.285156 381.179688 348.265625 C 380.503906 348.109375 380.085938 347.441406 380.238281 346.769531 C 380.433594 345.929688 380.730469 345.101563 381.125 344.296875 C 384.269531 337.933594 392.730469 335.484375 400 338.84375 C 400.628906 339.136719 400.90625 339.878906 400.609375 340.503906 C 400.320313 341.128906 399.585938 341.40625 398.953125 341.121094 C 392.90625 338.335938 385.914063 340.261719 383.371094 345.40625 C 383.058594 346.03125 382.828125 346.679688 382.679688 347.328125 C 382.546875 347.898438 382.03125 348.296875 381.460938 348.296875 Z "/>
<path style=" stroke:none;fill-rule:nonzero;fill:#472B29;fill-opacity:1;" d="M 355.546875 377.433594 L 349.984375 377.433594 C 348.605469 377.433594 347.484375 376.316406 347.484375 374.933594 C 347.484375 373.554688 348.605469 372.433594 349.984375 372.433594 L 355.546875 372.433594 C 356.925781 372.433594 358.046875 373.554688 358.046875 374.933594 C 358.046875 376.316406 356.925781 377.433594 355.546875 377.433594 Z "/>
<path style=" stroke:none;fill-rule:nonzero;fill:#FBCD59;fill-opacity:1;" d="M 190.609375 345.519531 C 190.609375 358.464844 180.117188 368.960938 167.171875 368.960938 C 154.222656 368.960938 143.730469 358.464844 143.730469 345.519531 C 143.730469 332.574219 154.222656 322.078125 167.171875 322.078125 C 180.117188 322.078125 190.609375 332.574219 190.609375 345.519531 Z "/>
<path style=" stroke:none;fill-rule:nonzero;fill:#472B29;fill-opacity:1;" d="M 167.164063 371.460938 C 152.863281 371.460938 141.226563 359.824219 141.226563 345.519531 C 141.226563 331.214844 152.859375 319.578125 167.164063 319.578125 C 181.46875 319.578125 193.105469 331.214844 193.105469 345.519531 C 193.109375 359.824219 181.476563 371.460938 167.164063 371.460938 Z M 167.164063 324.585938 C 155.621094 324.585938 146.226563 333.980469 146.226563 345.523438 C 146.226563 357.070313 155.621094 366.464844 167.164063 366.464844 C 178.714844 366.464844 188.105469 357.074219 188.105469 345.523438 C 188.105469 333.976563 178.714844 324.585938 167.164063 324.585938 Z "/>
<path style=" stroke:none;fill-rule:nonzero;fill:#F1BC19;fill-opacity:1;" d="M 182.496094 345.519531 C 182.496094 353.984375 175.632813 360.84375 167.171875 360.84375 C 158.707031 360.84375 151.84375 353.984375 151.84375 345.519531 C 151.84375 337.054688 158.707031 330.195313 167.171875 330.195313 C 175.632813 330.195313 182.496094 337.054688 182.496094 345.519531 Z "/>
<path style=" stroke:none;fill-rule:nonzero;fill:#472B29;fill-opacity:1;" d="M 167.164063 362.09375 C 158.03125 362.09375 150.59375 354.660156 150.59375 345.519531 C 150.59375 336.378906 158.03125 328.945313 167.164063 328.945313 C 176.304688 328.945313 183.738281 336.378906 183.738281 345.519531 C 183.738281 354.660156 176.304688 362.09375 167.164063 362.09375 Z M 167.164063 331.449219 C 159.40625 331.449219 153.09375 337.765625 153.09375 345.523438 C 153.09375 353.285156 159.410156 359.601563 167.164063 359.601563 C 174.929688 359.601563 181.238281 353.285156 181.238281 345.523438 C 181.238281 337.765625 174.929688 331.449219 167.164063 331.449219 Z "/>
<path style=" stroke:none;fill-rule:nonzero;fill:#FBCD59;fill-opacity:1;" d="M 227.074219 372.976563 C 227.074219 385.921875 216.582031 396.414063 203.636719 396.414063 C 190.6875 396.414063 180.195313 385.921875 180.195313 372.976563 C 180.195313 360.03125 190.6875 349.535156 203.636719 349.535156 C 216.582031 349.535156 227.074219 360.03125 227.074219 372.976563 Z "/>
<path style=" stroke:none;fill-rule:nonzero;fill:#472B29;fill-opacity:1;" d="M 203.636719 398.914063 C 189.335938 398.914063 177.695313 387.28125 177.695313 372.976563 C 177.695313 358.675781 189.328125 347.035156 203.636719 347.035156 C 217.941406 347.035156 229.574219 358.671875 229.574219 372.976563 C 229.574219 387.28125 217.933594 398.914063 203.636719 398.914063 Z M 203.636719 352.035156 C 192.089844 352.035156 182.695313 361.425781 182.695313 372.976563 C 182.695313 384.523438 192.089844 393.914063 203.636719 393.914063 C 215.179688 393.914063 224.574219 384.519531 224.574219 372.976563 C 224.574219 361.429688 215.179688 352.035156 203.636719 352.035156 Z "/>
<path style=" stroke:none;fill-rule:nonzero;fill:#F1BC19;fill-opacity:1;" d="M 218.960938 372.976563 C 218.960938 381.4375 212.097656 388.300781 203.636719 388.300781 C 195.171875 388.300781 188.308594 381.4375 188.308594 372.976563 C 188.308594 364.511719 195.171875 357.648438 203.636719 357.648438 C 212.097656 357.648438 218.960938 364.511719 218.960938 372.976563 Z "/>
<path style=" stroke:none;fill-rule:nonzero;fill:#472B29;fill-opacity:1;" d="M 203.636719 389.550781 C 194.496094 389.550781 187.058594 382.113281 187.058594 372.976563 C 187.058594 363.835938 194.496094 356.398438 203.636719 356.398438 C 212.773438 356.398438 220.210938 363.835938 220.210938 372.976563 C 220.214844 382.113281 212.773438 389.550781 203.636719 389.550781 Z M 203.636719 358.898438 C 195.871094 358.898438 189.558594 365.214844 189.558594 372.976563 C 189.558594 380.734375 195.875 387.050781 203.636719 387.050781 C 211.394531 387.050781 217.710938 380.734375 217.710938 372.976563 C 217.710938 365.214844 211.398438 358.898438 203.636719 358.898438 Z "/>
</g>
</svg>
