<svg height="512" viewBox="0 0 64 64" width="512" xmlns="http://www.w3.org/2000/svg"><g id="Location"><path d="m59 3h-20a2 2 0 0 0 -2 2v20a2 2 0 0 0 2 2h20a2 2 0 0 0 2-2v-20a2 2 0 0 0 -2-2z" fill="#ffc477"/><path d="m49 13 3 2v-12h-6v12z" fill="#8b5e3c"/><path d="m23 44c0 5.52-10 17-10 17s-10-11.48-10-17a10 10 0 0 1 20 0z" fill="#d80027"/><circle cx="13" cy="44" fill="#f1f2f2" r="4"/><path d="m59 3v16a4 4 0 0 1 -4 4h-18v2a2 2 0 0 0 2 2h20a2 2 0 0 0 2-2v-20a2 2 0 0 0 -2-2z" fill="#ffb655"/><path d="m57 62h-39a1 1 0 0 1 0-2h39a3 3 0 0 0 0-6h-25a5 5 0 0 1 0-10h15a3 3 0 0 0 0-6h-15a5.006 5.006 0 0 1 -5-5v-4a3 3 0 0 0 -3-3h-15a7 7 0 0 1 0-14h24a1 1 0 0 1 0 2h-24a5 5 0 0 0 0 10h15a5.006 5.006 0 0 1 5 5v4a3 3 0 0 0 3 3h15a5 5 0 0 1 0 10h-15a3 3 0 0 0 0 6h25a5 5 0 0 1 0 10z" fill="#ff9811"/></g></svg>