<?xml version="1.0" encoding="UTF-8"?>
<svg xmlns="http://www.w3.org/2000/svg" xmlns:xlink="http://www.w3.org/1999/xlink" width="208pt" height="208pt" viewBox="0 0 208 208" version="1.1">
<g id="surface1">
<path style=" stroke:none;fill-rule:nonzero;fill:#0EA3AC;fill-opacity:1;" d="M 70.910156 7.878906 C 57.859375 7.878906 47.273438 18.464844 47.273438 31.515625 C 47.273438 44.5625 57.859375 55.152344 70.910156 55.152344 C 83.957031 55.152344 94.546875 44.5625 94.546875 31.515625 C 94.546875 18.464844 83.957031 7.878906 70.910156 7.878906 Z M 70.910156 55.152344 C 68.539063 55.152344 66.140625 55.089844 63.769531 55.890625 C 68.507813 62.199219 70.910156 70.109375 70.910156 78.789063 C 70.910156 81.925781 70.171875 85.003906 70.171875 88.144531 C 76.480469 78.695313 86.667969 72.480469 98.484375 70.910156 C 92.976563 61.460938 82.726563 55.152344 70.910156 55.152344 Z M 133.9375 7.878906 C 120.890625 7.878906 110.304688 18.464844 110.304688 31.515625 C 110.304688 44.5625 120.890625 55.152344 133.9375 55.152344 C 146.988281 55.152344 157.574219 44.5625 157.574219 31.515625 C 157.574219 18.464844 146.988281 7.878906 133.9375 7.878906 Z M 133.9375 55.152344 C 122.121094 55.152344 111.871094 61.460938 106.363281 70.910156 C 118.183594 72.480469 128.367188 78.695313 134.679688 88.144531 C 134.679688 85.003906 133.9375 81.925781 133.9375 78.789063 C 133.9375 70.109375 136.339844 62.199219 141.078125 55.890625 C 138.710938 55.089844 136.308594 55.152344 133.9375 55.152344 Z M 31.515625 55.152344 C 18.464844 55.152344 7.878906 65.738281 7.878906 78.789063 C 7.878906 91.835938 18.464844 102.425781 31.515625 102.425781 C 44.5625 102.425781 55.152344 91.835938 55.152344 78.789063 C 55.152344 65.738281 44.5625 55.152344 31.515625 55.152344 Z M 31.515625 102.425781 C 14.1875 102.425781 0 116.613281 0 133.9375 L 0 151.175781 C 0 151.175781 7.878906 157.574219 31.515625 157.574219 C 55.152344 157.574219 63.03125 151.175781 63.03125 151.175781 L 63.03125 133.9375 C 63.03125 116.613281 48.84375 102.425781 31.515625 102.425781 Z M 173.332031 55.152344 C 160.285156 55.152344 149.695313 65.738281 149.695313 78.789063 C 149.695313 91.835938 160.285156 102.425781 173.332031 102.425781 C 186.382813 102.425781 196.96875 91.835938 196.96875 78.789063 C 196.96875 65.738281 186.382813 55.152344 173.332031 55.152344 Z M 173.332031 102.425781 C 156.007813 102.425781 141.816406 116.613281 141.816406 133.9375 L 141.816406 151.175781 C 141.816406 151.175781 149.695313 157.574219 173.332031 157.574219 C 196.96875 157.574219 204.847656 151.175781 204.847656 151.175781 L 204.847656 133.9375 C 204.847656 116.613281 190.660156 102.425781 173.332031 102.425781 Z M 102.425781 86.667969 C 89.375 86.667969 78.789063 97.253906 78.789063 110.304688 C 78.789063 123.351563 89.375 133.9375 102.425781 133.9375 C 115.472656 133.9375 126.0625 123.351563 126.0625 110.304688 C 126.0625 97.253906 115.472656 86.667969 102.425781 86.667969 Z M 102.425781 133.9375 C 85.097656 133.9375 70.910156 148.128906 70.910156 165.453125 L 70.910156 182.6875 C 70.910156 182.6875 78.789063 189.089844 102.425781 189.089844 C 126.0625 189.089844 133.9375 182.6875 133.9375 182.6875 L 133.9375 165.453125 C 133.9375 148.128906 119.75 133.9375 102.425781 133.9375 Z "/>
</g>
</svg>
