<?xml version="1.0" encoding="iso-8859-1"?>
<!-- Generator: Adobe Illustrator 19.0.0, SVG Export Plug-In . SVG Version: 6.00 Build 0)  -->
<svg version="1.1" id="Capa_1" xmlns="http://www.w3.org/2000/svg" xmlns:xlink="http://www.w3.org/1999/xlink" x="0px" y="0px"
	 viewBox="0 0 512 512" style="enable-background:new 0 0 512 512;" xml:space="preserve">
<path style="fill:#C0E4F4;" d="M496,464c8.84,0,16-7.16,16-16V16c0-8.84-7.16-16-16-16H16C7.16,0,0,7.16,0,16v432
	c0,8.84,7.16,16,16,16H496z"/>
<path style="fill:#39A9DB;" d="M512,73.032H0V16C0,7.16,7.16,0,16,0h480c8.84,0,16,7.16,16,16V73.032z"/>
<g>
	<rect x="48" y="32" style="fill:#61BAE2;" width="16" height="16"/>
	<rect x="80" y="32" style="fill:#61BAE2;" width="16" height="16"/>
	<rect x="112" y="32" style="fill:#61BAE2;" width="16" height="16"/>
	<rect x="160" y="32" style="fill:#61BAE2;" width="256" height="16"/>
	<rect x="448" y="32" style="fill:#61BAE2;" width="16" height="16"/>
</g>
<path style="fill:#E65039;" d="M279.752,176H73.52c-4.888,0-8.632,4.344-7.912,9.176l31.928,215.496
	c0.624,4.208,4.24,7.328,8.496,7.328H247.24c4.256,0,7.872-3.12,8.496-7.336l31.928-215.496
	C288.376,180.344,284.632,176,279.752,176z"/>
<g>
	<rect x="136" y="224" style="fill:#AD3C2B;" width="16" height="16"/>
	<path style="fill:#AD3C2B;" d="M208,112h-48c-13.232,0-24,10.768-24,24v72h16v-72c0-4.416,3.592-8,8-8h48c4.408,0,8,3.584,8,8v32
		h16v-32C232,122.768,221.232,112,208,112z"/>
</g>
<path d="M270.96,308.184l-15.832-2.344L272,192h-16v-16h16c4.648,0,9.064,2.024,12.112,5.536c3.04,3.528,4.4,8.192,3.72,12.8
	L270.96,308.184z"/>
<polygon style="fill:#AD3C2B;" points="208,360 91.512,360 93.88,376 208,376 "/>
<path style="fill:#FCB641;" d="M489.968,476.432L409.904,330.88c40.328-39.928,50.608-103.472,20.928-154.872
	c-35.288-61.12-113.744-82.112-174.824-46.84C194.896,164.456,173.88,242.88,209.16,304c23.68,41.008,66.792,63.96,111.056,63.96
	c3.632,0,7.272-0.216,10.904-0.528l65.296,131.256c4.088,8.208,12.328,13.312,21.496,13.312h51.024
	c8.568,0,16.296-4.408,20.656-11.784C493.96,492.84,494.104,483.952,489.968,476.432z"/>
<path d="M320.168,335.96c-33.2,0-65.528-17.208-83.296-47.968c-26.456-45.832-10.696-104.656,35.136-131.12
	c22.192-12.824,48.048-16.232,72.832-9.584c24.768,6.632,45.464,22.512,58.28,44.72s16.224,48.072,9.584,72.832
	c-6.632,24.768-22.512,45.464-44.72,58.28C352.912,331.832,336.432,335.96,320.168,335.96z M319.864,160.032
	c-13.56,0-27.296,3.448-39.856,10.704c-38.192,22.048-51.328,71.064-29.28,109.256c22.04,38.184,71.064,51.328,109.264,29.272
	c38.192-22.048,51.328-71.064,29.272-109.256C374.472,174.384,347.528,160.032,319.864,160.032z"/>
<path style="fill:#FCEED2;" d="M403.128,192.008c-12.824-22.2-33.512-38.088-58.28-44.72c-24.792-6.648-50.64-3.232-72.832,9.584
	c-45.832,26.464-61.592,85.28-35.136,131.12c17.76,30.76,50.088,47.968,83.296,47.968c16.264,0,32.752-4.136,47.832-12.832
	c22.2-12.824,38.088-33.512,44.72-58.28C419.352,240.08,415.944,214.208,403.128,192.008z"/>
<g>
	<rect x="328" y="232" style="fill:#FCB641;" width="16" height="16"/>
	<rect x="360" y="232" style="fill:#FCB641;" width="16" height="16"/>
	<rect x="296" y="232" style="fill:#FCB641;" width="16" height="16"/>
</g>
<g>
	<polygon style="fill:#FDC567;" points="413.776,416.84 365.112,435.752 372.568,450.744 422.984,431.16 	"/>
	<polygon style="fill:#FDC567;" points="434.368,440.84 378.456,462.568 385.912,477.56 443.576,455.16 	"/>
</g>
<g>
</g>
<g>
</g>
<g>
</g>
<g>
</g>
<g>
</g>
<g>
</g>
<g>
</g>
<g>
</g>
<g>
</g>
<g>
</g>
<g>
</g>
<g>
</g>
<g>
</g>
<g>
</g>
<g>
</g>
</svg>
