<svg height="512" viewBox="0 0 512 512" width="512" xmlns="http://www.w3.org/2000/svg"><g id="filled_outline" data-name="filled outline"><path d="m24 48h464v400h-464z" fill="#d9d9d9"/><path d="m72 160h96v96h-96z" fill="#efb58b"/><path d="m72 248h96v8h-96z" fill="#ce9c77"/><path d="m104 160h32v40h-32z" fill="#de4c3b"/><path d="m216 312a16 16 0 0 0 -16 16v-8a16 16 0 0 0 -32 0 16 16 0 0 0 -32 0v-72a16 16 0 0 0 -32 0v184l16 24v32h96v-32l11.422-28.556a64 64 0 0 0 4.578-23.769v-75.675a16 16 0 0 0 -16-16z" fill="#fec9a3"/><circle cx="352" cy="248" fill="#fdb62f" r="104"/><path d="m24 48h464v64h-464z" fill="#69b9e7"/><g fill="#3e8cc7"><path d="m48 72h16v16h-16z"/><path d="m80 72h16v16h-16z"/><path d="m112 72h16v16h-16z"/></g><circle cx="339.314" cy="304" fill="#dc9315" r="12"/><circle cx="396.686" cy="304" fill="#dc9315" r="12"/><path d="m422.305 219.078a7.994 7.994 0 0 0 -6.305-3.078h-92.688l-13.656-13.656a7.994 7.994 0 0 0 -5.656-2.344h-16a8 8 0 0 0 0 16h12.688l12.093 12.094 15.461 61.844a8 8 0 0 0 7.758 6.062h64a8 8 0 0 0 7.758-6.062l16-64a7.98 7.98 0 0 0 -1.453-6.86zm-20.555 28.922h-12.688l2-16h14.688zm-38.688 0-2-16h13.876l-2 16zm7.876 16-2 16h-1.876l-2-16zm-26-32 2 16h-12.688l-4-16zm-6.688 32h10.688l2 16h-8.688zm46.812 16 2-16h10.688l-4 16z" fill="#dc9315"/><path d="m320 384h16v16h-16z" fill="#c3c3c3"/><path d="m352 384h16v16h-16z" fill="#c3c3c3"/><path d="m384 384h16v16h-16z" fill="#c3c3c3"/><path d="m176 360v-53.781a15.932 15.932 0 0 0 -8 13.781v40z" fill="#f7bb8f"/><path d="m144 306.219a15.932 15.932 0 0 0 -8 13.781v40h8z" fill="#f7bb8f"/><path d="m200 328v32h8v-45.781a15.932 15.932 0 0 0 -8 13.781z" fill="#f7bb8f"/><path d="m168 208h32v16h-32z" fill="#83bd93"/><path d="m216 208h16v16h-16z" fill="#83bd93"/><path d="m104 336-25.945 25.945a16 16 0 0 0 -4.376 14.455l5.371 26.85a16 16 0 0 0 4.376 8.176l20.574 20.574z" fill="#fec9a3"/><path d="m352 136a112 112 0 1 0 112 112 112.126 112.126 0 0 0 -112-112zm0 208a96 96 0 1 1 96-96 96.1 96.1 0 0 1 -96 96z"/><path d="m488 40h-464a8 8 0 0 0 -8 8v400a8 8 0 0 0 8 8h86.38l1.62 2.43v29.57a8 8 0 0 0 8 8h96a8 8 0 0 0 8-8v-30.461l.616-1.539h263.384a8 8 0 0 0 8-8v-400a8 8 0 0 0 -8-8zm-456 16h448v48h-448zm176.57 397.023a8.1 8.1 0 0 0 -.57 2.977v24h-80v-24a8 8 0 0 0 -1.352-4.453l-15.984-23.977-.134.089a7.624 7.624 0 0 0 -.874-1.315l-20.562-20.563a8.328 8.328 0 0 1 -2.211-4.062l-5.352-26.867a7.963 7.963 0 0 1 2.2-7.274l25.922-25.922a7.971 7.971 0 0 0 2.347-5.656v-88a8 8 0 0 1 16 0v112h16v-40a8 8 0 0 1 16 0v40h16v-40a8 8 0 0 1 16 0v40h16v-32a8 8 0 0 1 16 0v75.68a55.028 55.028 0 0 1 -3.992 20.781zm-96.57-285.023h16v24h-16zm-8 40h32a8 8 0 0 0 8-8v-32h16v80h-16a24 24 0 0 0 -48 0h-16v-80h16v32a8 8 0 0 0 8 8zm127.022 232 3.83-9.562a71.046 71.046 0 0 0 5.148-26.758v-75.68a23.989 23.989 0 0 0 -35.773-20.906 23.976 23.976 0 0 0 -36.227-4.969 24.948 24.948 0 0 0 -24-4.758v-33.367h24a8 8 0 0 0 8-8v-32h24v-16h-24v-48a8 8 0 0 0 -8-8h-96a8 8 0 0 0 -8 8v96a8 8 0 0 0 8 8h24v68.688l-23.578 23.578a24.027 24.027 0 0 0 -6.586 21.695l5.375 26.969a24.2 24.2 0 0 0 6.57 12.164l19.992 19.992 1.943 2.914h-67.716v-320h448v320z"/><path d="m48 72h16v16h-16z"/><path d="m80 72h16v16h-16z"/><path d="m112 72h16v16h-16z"/><path d="m323.312 216-13.656-13.656a7.994 7.994 0 0 0 -5.656-2.344h-16a8 8 0 0 0 0 16h12.688l12.093 12.094 15.461 61.844a7.9 7.9 0 0 0 3.568 4.767 12 12 0 1 0 16.39 1.295h39.6a12 12 0 1 0 16.389-1.3 7.9 7.9 0 0 0 3.568-4.767l16-64a8 8 0 0 0 -7.757-9.933zm78.438 32h-12.688l2-16h14.688zm-36.688 16h5.876l-2 16h-1.876zm-14.124 16h-8.688l-4-16h10.688zm12.124-32-2-16h13.876l-2 16zm24 16h10.688l-4 16h-8.688zm-42.124-32 2 16h-12.688l-4-16z"/><path d="m320 384h16v16h-16z"/><path d="m352 384h16v16h-16z"/><path d="m384 384h16v16h-16z"/><path d="m216 208h16v16h-16z"/></g></svg>