<svg id="flat" height="512" viewBox="0 0 512 512" width="512" xmlns="http://www.w3.org/2000/svg"><path d="m120 432h240v56h-240z" fill="#ffb401"/><path d="m392 296-11.80844-35.42534a32 32 0 0 0 -16.047-18.50238l-52.14456-26.07228h-144l-52.49964 26.24982a32 32 0 0 0 -15.8249 17.8589l-35.67546 99.89128 24 72 104 16h32z" fill="#ffc431"/><path d="m192 184 48 56 48-56-8-16h-80z" fill="#ffbfa1"/><path d="m296 96v56a56 56 0 0 1 -55.99994 56h-.00006a56 56 0 0 1 -56-56v-56z" fill="#ffceb6"/><path d="m304 88-4.83259-28.99554a32 32 0 0 0 -21.44532-25.0971l-29.72209-9.90736h-16l-29.72209 9.90736a32 32 0 0 0 -21.44532 25.0971l-4.83259 28.99554z" fill="#ffc431"/><path d="m232 176h-8v-16h8a8.00917 8.00917 0 0 0 8-8v-8h16v8a24.0275 24.0275 0 0 1 -24 24z" fill="#c78869"/><circle cx="216" cy="128" fill="#a36522" r="8"/><circle cx="264" cy="128" fill="#a36522" r="8"/><path d="m301.71125 115.88449a10.44863 10.44863 0 0 0 13.79295-6.39716l4.4958-13.48733-5.70032-3.42019a144.41253 144.41253 0 0 0 -74.29962-20.57981h-.00006a144.41253 144.41253 0 0 0 -74.29964 20.57981l-5.70036 3.42019 4.49578 13.48735a10.44864 10.44864 0 0 0 13.793 6.39716 166.16247 166.16247 0 0 1 61.71122-11.88451h.00006a166.16256 166.16256 0 0 1 61.71119 11.88449z" fill="#ffb401"/><path d="m272 296h176v144h-176z" fill="#e3a15b"/><path d="m328 296v48l16-16 16 16 16-16 16 16v-48z" fill="#c78640"/><path d="m224 392h32v56h-32z" fill="#ffd873"/><path d="m248 384v-144h-16v144h-4.6865l-13.65674-13.65723a7.98839 7.98839 0 0 0 -2.84766-1.833l-58.8091-22.05372v-34.45605h-16v40a7.999 7.999 0 0 0 5.19092 7.49023l62.37744 23.39161 14.7749 14.77539a8.00035 8.00035 0 0 0 5.65674 2.34277h56v-16z" fill="#ffb401"/><path d="m256 392 40-24h24v16l-16 24 24 8 48-8 8 16-48 24h-80z" fill="#ffceb6"/><g fill="#548aff"><path d="m192 184 48 56-48 32-24-56 16-32z"/><path d="m288 184-48 56 48 32 24-56-16-32z"/></g></svg>