<svg height="512pt" viewBox="0 0 512 512" width="512pt" xmlns="http://www.w3.org/2000/svg" xmlns:xlink="http://www.w3.org/1999/xlink"><linearGradient id="a" gradientUnits="userSpaceOnUse" x1="74.9807" x2="437.0193" y1="74.9807" y2="437.0193"><stop offset="0" stop-color="#60b2fc"/><stop offset="1" stop-color="#3965cc"/></linearGradient><linearGradient id="b"><stop offset=".0053" stop-color="#ffa07d"/><stop offset="1" stop-color="#ff6126"/></linearGradient><linearGradient id="c" gradientUnits="userSpaceOnUse" x1="129.5426" x2="190.2465" xlink:href="#b" y1="330.5496" y2="391.2535"/><linearGradient id="d" gradientUnits="userSpaceOnUse" x1="313.609" x2="390.602" xlink:href="#b" y1="322.4051" y2="399.398"/><linearGradient id="e" gradientUnits="userSpaceOnUse" x1="149.118" x2="362.882" y1="161.4461" y2="375.2102"><stop offset="0" stop-color="#fff"/><stop offset="1" stop-color="#a3fdf6"/></linearGradient><linearGradient id="f" gradientUnits="userSpaceOnUse" x1="193.4632" x2="332.4632" xlink:href="#b" y1="99.943" y2="238.943"/><linearGradient id="g"><stop offset="0" stop-color="#ff6126"/><stop offset="1" stop-color="#f64213"/></linearGradient><linearGradient id="h" gradientUnits="userSpaceOnUse" x1="195.9867" x2="246.5133" xlink:href="#g" y1="166.9195" y2="217.4462"/><linearGradient id="i" gradientUnits="userSpaceOnUse" x1="334.9867" x2="385.5133" xlink:href="#g" y1="166.9195" y2="217.4462"/><linearGradient id="j" gradientUnits="userSpaceOnUse" x1="188.0855" x2="323.9146" y1="260.7564" y2="396.5854"><stop offset=".0053" stop-color="#0d4a55"/><stop offset="1" stop-color="#093239"/></linearGradient><linearGradient id="k" gradientUnits="userSpaceOnUse" x1="200.3023" x2="311.6978" y1="281.1177" y2="392.5132"><stop offset="0" stop-color="#cfe0e3"/><stop offset="1" stop-color="#70a2aa"/></linearGradient><linearGradient id="l" gradientUnits="userSpaceOnUse" x1="119.5234" x2="183.9765" xlink:href="#b" y1="114.4766" y2="178.9297"/><linearGradient id="m" gradientUnits="userSpaceOnUse" x1="258.5234" x2="322.9766" xlink:href="#g" y1="114.4766" y2="178.9297"/><path d="m512 256c0 141.386719-114.613281 256-256 256s-256-114.613281-256-256 114.613281-256 256-256 256 114.613281 256 256zm0 0" fill="url(#a)"/><path d="m219.078125 343.09375-32.578125 51.90625h-69.5v-51.90625zm0 0" fill="url(#c)"/><path d="m395 343.09375v51.90625h-69.5l-32.578125-51.90625zm0 0" fill="url(#d)"/><path d="m256 149.046875v-4.351563l-6.472656 2.277344-9.816406-3.144531v6.59375l-122.710938 43.140625v149.53125h278v-149.53125zm0 0" fill="url(#e)"/><path d="m395 117h-69.5l-34.75 30.410156-34.75-30.410156h-69.5l-69.5 59.40625v17.15625c0 19.195312 15.554688 34.75 34.75 34.75s34.75-15.554688 34.75-34.75h69.5c0 19.195312 15.554688 34.75 34.75 34.75s34.75-15.554688 34.75-34.75l69.5-17.15625zm0 0" fill="url(#f)"/><path d="m256 176.40625v17.15625c0 19.195312-15.554688 34.75-34.75 34.75s-34.75-15.554688-34.75-34.75v-17.15625zm0 0" fill="url(#h)"/><path d="m395 176.40625v17.15625c0 19.195312-15.554688 34.75-34.75 34.75s-34.75-15.554688-34.75-34.75v-17.15625zm0 0" fill="url(#i)"/><path d="m256 262.34375h-69.5v132.65625h16.289062l41.542969-90.851562-9.117187 32.667968 73.996094 58.183594h16.289062v-132.65625zm0 0" fill="url(#j)"/><path d="m256 278.632812h-53.210938v116.367188h106.421876v-116.367188zm0 0" fill="url(#k)"/><path d="m117 117h69.5v59.40625h-69.5zm0 0" fill="url(#l)"/><path d="m256 117h69.5v59.40625h-69.5zm0 0" fill="url(#m)"/></svg>