<?xml version="1.0" encoding="UTF-8"?>
<svg xmlns="http://www.w3.org/2000/svg" xmlns:xlink="http://www.w3.org/1999/xlink" width="480pt" height="480pt" viewBox="0 0 480 480" version="1.1">
<g id="surface1">
<path style=" stroke:none;fill-rule:nonzero;fill:#FFFFFF;fill-opacity:1;" d="M 323.683594 47.367188 C 313.382813 47.367188 304.6875 53.96875 301.480469 63.15625 L 252.632813 63.15625 C 246.957031 63.097656 241.652344 66.058594 238.753906 70.992188 C 235.917969 75.925781 235.917969 81.96875 238.753906 86.902344 C 241.652344 91.839844 246.957031 94.796875 252.632813 94.738281 L 306.847656 94.738281 C 316.097656 116.695313 331.578125 157.769531 331.578125 189.472656 C 331.578125 252.632813 284.210938 284.210938 252.632813 284.210938 L 221.050781 284.210938 C 203.597656 284.210938 189.472656 270.085938 189.472656 252.632813 L 189.472656 221.050781 L 63.15625 221.050781 C 63.15625 221.050781 15.789063 236.84375 15.789063 284.210938 C 21.464844 286.0625 36.453125 292.476563 53.535156 300 C 40.214844 311.59375 31.578125 328.496094 31.578125 347.367188 C 31.578125 382.09375 60.011719 410.527344 94.738281 410.527344 C 129.460938 410.527344 157.894531 382.09375 157.894531 347.367188 C 157.894531 347.121094 157.832031 346.8125 157.769531 346.566406 C 160.113281 347.058594 162.457031 347.367188 164.800781 347.367188 L 280.386719 347.367188 C 292.96875 347.367188 304.996094 342.371094 313.878906 333.492188 L 315.789063 331.578125 L 318.070313 331.578125 C 316.714844 336.636719 315.789063 341.878906 315.789063 347.367188 C 315.789063 382.09375 344.222656 410.527344 378.949219 410.527344 C 413.671875 410.527344 442.105469 382.09375 442.105469 347.367188 C 442.105469 339.71875 440.5 332.503906 437.972656 325.71875 L 457.894531 315.789063 C 457.894531 315.789063 435.9375 270.828125 390.542969 256.824219 L 394.738281 252.632813 C 393.8125 194.097656 360.382813 125.207031 342.1875 94.738281 L 363.15625 94.738281 L 363.15625 47.367188 Z M 63.15625 157.894531 C 57.484375 157.832031 52.179688 160.792969 49.28125 165.726563 C 46.441406 170.660156 46.441406 176.707031 49.28125 181.640625 C 52.179688 186.574219 57.484375 189.535156 63.15625 189.472656 L 189.472656 189.472656 C 195.148438 189.535156 200.453125 186.574219 203.351563 181.640625 C 206.1875 176.707031 206.1875 170.660156 203.351563 165.726563 C 200.453125 160.792969 195.148438 157.832031 189.472656 157.894531 Z M 89.925781 316.28125 C 102.691406 322.082031 110.957031 325.84375 121.566406 330.714844 C 124.527344 335.527344 126.316406 341.199219 126.316406 347.367188 C 126.316406 365.007813 112.375 378.949219 94.738281 378.949219 C 77.097656 378.949219 63.15625 365.007813 63.15625 347.367188 C 63.15625 331.394531 74.628906 318.566406 89.925781 316.28125 Z M 351.625 331.578125 L 406.269531 331.578125 C 408.921875 336.203125 410.527344 341.570313 410.527344 347.367188 C 410.527344 365.007813 396.585938 378.949219 378.949219 378.949219 C 361.308594 378.949219 347.367188 365.007813 347.367188 347.367188 C 347.367188 341.570313 348.972656 336.203125 351.625 331.578125 Z "/>
</g>
</svg>
