<?xml version="1.0" encoding="UTF-8"?>
<svg xmlns="http://www.w3.org/2000/svg" xmlns:xlink="http://www.w3.org/1999/xlink" width="480pt" height="480pt" viewBox="0 0 480 480" version="1.1">
<g id="surface1">
<path style=" stroke:none;fill-rule:nonzero;fill:#0EA3AC;fill-opacity:1;" d="M 236.84375 47.367188 C 169.859375 47.367188 142.105469 90.359375 142.105469 142.105469 C 142.105469 159.558594 150.433594 177.078125 150.433594 177.078125 C 147.101563 178.988281 141.550781 185.09375 142.96875 195.949219 C 145.558594 216.242188 154.316406 221.421875 159.929688 221.792969 C 162.089844 240.726563 182.378906 264.90625 189.472656 268.421875 L 189.472656 300 C 173.683594 347.367188 47.367188 315.789063 47.367188 426.316406 L 259.785156 426.316406 L 260.527344 421.691406 C 261.636719 415.152344 264.71875 409.109375 269.40625 404.359375 L 340.707031 333.058594 C 314.308594 325.226563 290.5 318.875 284.210938 300 L 284.210938 268.421875 C 291.304688 264.90625 311.59375 240.726563 313.753906 221.792969 C 319.367188 221.421875 328.125 216.242188 330.714844 195.949219 C 332.132813 185.09375 326.582031 178.988281 323.253906 177.078125 C 323.253906 177.078125 331.578125 161.285156 331.578125 142.105469 C 331.578125 103.804688 316.53125 71.050781 284.210938 71.050781 C 284.210938 71.050781 272.984375 47.367188 236.84375 47.367188 Z M 445.804688 284.210938 C 438.652344 284.210938 431.496094 286.925781 426.070313 292.351563 L 417.742188 300.679688 L 457.214844 340.152344 L 465.542969 331.824219 C 476.398438 320.96875 476.398438 303.269531 465.542969 292.351563 C 460.054688 286.925781 452.898438 284.210938 445.804688 284.210938 Z M 395.414063 323.003906 L 291.734375 426.746094 L 284.210938 473.683594 L 331.207031 466.222656 L 434.890625 362.480469 Z "/>
</g>
</svg>
