<svg id="Layer_1" enable-background="new 0 0 497 497" height="512" viewBox="0 0 497 497" width="512" xmlns="http://www.w3.org/2000/svg"><g><g><path d="m477 497h-457c-11.046 0-20-8.954-20-20v-387.741c0-11.046 8.954-20 20-20h457c11.046 0 20 8.954 20 20v387.741c0 11.046-8.954 20-20 20z" fill="#f7fafa"/><path d="m477 69.259h-40c11.046 0 20 8.954 20 20v387.741c0 11.046-8.954 20-20 20h40c11.046 0 20-8.954 20-20v-387.741c0-11.046-8.954-20-20-20z" fill="#edf0f0"/><path d="m497 152.5h-497v-63.241c0-11.046 8.954-20 20-20h457c11.046 0 20 8.954 20 20z" fill="#fee438"/><path d="m477 69.259h-40c11.046 0 20 8.954 20 20v63.241h40v-63.241c0-11.046-8.954-20-20-20z" fill="#f2d935"/><g><g><path d="m407.666 433.489h-318.332c-19.66 0-35.598-15.938-35.598-35.598 0-19.66 15.938-35.598 35.598-35.598h318.331c19.66 0 35.598 15.938 35.598 35.598.001 19.66-15.937 35.598-35.597 35.598z" fill="#fee438"/><g><g><path d="m113.651 405.391c9.652 0 9.668-15 0-15-9.652 0-9.668 15 0 15z" fill="#fff"/></g><g><path d="m152.179 405.391c9.652 0 9.668-15 0-15-9.652 0-9.668 15 0 15z" fill="#fff"/></g><g><path d="m190.707 405.391c9.652 0 9.668-15 0-15-9.651 0-9.667 15 0 15z" fill="#fff"/></g><g><path d="m229.236 405.391c9.652 0 9.668-15 0-15-9.652 0-9.668 15 0 15z" fill="#fff"/></g><g><path d="m267.764 405.391c9.652 0 9.668-15 0-15-9.652 0-9.668 15 0 15z" fill="#fff"/></g><g><path d="m306.293 405.391c9.652 0 9.668-15 0-15-9.652 0-9.668 15 0 15z" fill="#fff"/></g><g><path d="m344.821 405.391c9.652 0 9.668-15 0-15-9.652 0-9.668 15 0 15z" fill="#fff"/></g><g><path d="m383.349 405.391c9.652 0 9.668-15 0-15-9.651 0-9.667 15 0 15z" fill="#fff"/></g></g></g><g><path d="m407.666 320.314h-318.332c-19.66 0-35.598-15.938-35.598-35.598 0-19.66 15.938-35.598 35.598-35.598h318.331c19.66 0 35.598 15.938 35.598 35.598.001 19.66-15.937 35.598-35.597 35.598z" fill="#fee438"/></g></g><g><circle cx="248.5" cy="95.585" fill="#686380" r="95.585"/><path d="m248.5 0c-6.86 0-13.549.729-20 2.102 43.188 9.195 75.585 47.553 75.585 93.483s-32.397 84.288-75.585 93.483c6.451 1.373 13.14 2.102 20 2.102 52.79 0 95.585-42.795 95.585-95.585s-42.795-95.585-95.585-95.585z" fill="#5f5a78"/><g><g><path d="m267.671 103.864c-4.142 0-7.5-3.358-7.5-7.5v-35.092c0-6.436-5.236-11.671-11.671-11.671s-11.671 5.235-11.671 11.671v35.091c0 4.142-3.358 7.5-7.5 7.5s-7.5-3.358-7.5-7.5v-35.091c0-14.707 11.965-26.671 26.671-26.671s26.671 11.964 26.671 26.671v35.091c0 4.143-3.358 7.501-7.5 7.501z" fill="#fff"/></g><path d="m273.331 145.069h-49.662c-5.523 0-10-4.477-10-10v-38.705c0-5.523 4.477-10 10-10h49.662c5.523 0 10 4.477 10 10v38.705c0 5.523-4.477 10-10 10z" fill="#fee438"/></g></g><path d="m383.35 277.216h-269.7c-4.142 0-7.5 3.358-7.5 7.5s3.358 7.5 7.5 7.5h269.7c4.142 0 7.5-3.358 7.5-7.5s-3.358-7.5-7.5-7.5z" fill="#fff"/></g><g><path d="m248.5 123.216c9.652 0 9.668-15 0-15-9.652 0-9.668 15 0 15z" fill="#fff"/></g></g></svg>